<?xml version="1.0" encoding="UTF-8" standalone="no"?>
<!-- Created with Inkscape (http://www.inkscape.org/) -->

<svg
   version="1.1"
   id="svg2"
   width="806"
   height="716"
   viewBox="0 0 806 716"
   sodipodi:docname="Crimson Federation new emblem.svg"
   inkscape:version="1.2.2 (732a01da63, 2022-12-09)"
   xmlns:inkscape="http://www.inkscape.org/namespaces/inkscape"
   xmlns:sodipodi="http://sodipodi.sourceforge.net/DTD/sodipodi-0.dtd"
   xmlns="http://www.w3.org/2000/svg"
   xmlns:svg="http://www.w3.org/2000/svg">
  <defs
     id="defs6" />
  <sodipodi:namedview
     id="namedview4"
     pagecolor="#ffffff"
     bordercolor="#000000"
     borderopacity="0.25"
     inkscape:showpageshadow="2"
     inkscape:pageopacity="0.0"
     inkscape:pagecheckerboard="0"
     inkscape:deskcolor="#d1d1d1"
     showgrid="false"
     inkscape:zoom="1.4343575"
     inkscape:cx="400.17916"
     inkscape:cy="357.65141"
     inkscape:window-width="3840"
     inkscape:window-height="2066"
     inkscape:window-x="-11"
     inkscape:window-y="-11"
     inkscape:window-maximized="1"
     inkscape:current-layer="g8" />
  <g
     inkscape:groupmode="layer"
     inkscape:label="Image"
     id="g8">
    <path
       style="fill:#ff0000;fill-opacity:1"
       d="M 300.58059,708.89966 C 297.51126,706.09447 295,703.11726 295,702.28363 c 0,-2.44048 6.39393,-10.45841 12.68108,-15.90194 12.2939,-10.64431 29.063,-22.04468 55.64362,-37.82898 8.40847,-4.99318 14.44809,-9.17992 13.95453,-9.67348 -0.47859,-0.47859 -4.27201,-1.15772 -8.42984,-1.50919 -13.67831,-1.15624 -20.9447,1.70231 -41.34939,16.26658 -32.91169,23.49141 -58.51794,33.97024 -85.77264,35.10069 -14.28864,0.59266 -23.8702,-0.58252 -35.66519,-4.37434 -10.92781,-3.51303 -27.0456,-11.73764 -35.9706,-18.35513 -7.2292,-5.36012 -15.9661,-14.46665 -14.90117,-15.53158 0.26013,-0.26012 5.8362,1.49663 12.39128,3.90389 20.80376,7.63988 27.96502,9.11736 43.91832,9.06102 19.27422,-0.0681 30.0208,-3.04023 65.42231,-18.09372 C 311.8347,630.50193 329.52867,626 352.96367,626 c 11.28006,0 16.80805,0.56384 29.67757,3.02703 17.58735,3.36618 16.43272,3.40002 41.35876,-1.2122 15.3417,-2.83877 17.6232,-3.01486 32.5,-2.50843 23.95779,0.81557 37.08086,4.35266 74,19.94537 31.34394,13.23805 42.6661,16.55259 59.52253,17.42512 14.41206,0.746 22.57745,-0.75337 44.22747,-8.12127 10.56727,-3.59624 15.75,-4.94279 15.75,-4.09208 0,2.32793 -10.54643,12.28067 -18.57032,17.52494 -20.77759,13.57986 -40.91806,19.9625 -63.09171,19.99416 -19.71055,0.0281 -34.37244,-3.64146 -55.83797,-13.97521 -10.47872,-5.04457 -19.51783,-10.69482 -46.16079,-28.85459 -8.86774,-6.04423 -15.80951,-8.17422 -26.24576,-8.05316 -15.31547,0.17765 -15.41434,-0.006 7.38796,13.72703 34.03947,20.50085 55.33442,36.6671 61.55243,46.72805 l 2.11677,3.42499 -2.08727,2.9313 c -2.83856,3.98639 -7.70365,7.96057 -10.65055,8.7002 -3.10687,0.77977 -5.0332,-0.70796 -23.41279,-18.08194 -20.85253,-19.71162 -35.13837,-31.84102 -46,-39.05632 -10.15628,-6.74674 -20.72889,-11.02433 -24.33676,-9.84645 -1.18978,0.38844 -4.19771,0.74387 -6.68428,0.78985 -11.58157,0.21418 -32.27014,15.17953 -68.02321,49.20549 C 313.6564,711.13385 310.24443,714 308.07771,714 c -1.0541,0 -4.4278,-2.29515 -7.49712,-5.10034 z M 177.61368,644.89699 c -28.04019,-4.09254 -67.18229,-28.32104 -81.979822,-50.74454 -6.465373,-9.79734 -7.376997,-14.79865 -1.558172,-8.54838 4.236593,4.55072 19.950874,14.2608 28.272394,17.46992 10.61203,4.09243 21.90619,6.45385 40.15192,8.3951 8.25,0.87775 30.47706,3.60629 49.39346,6.06341 18.91641,2.45713 34.86891,4.4675 35.45,4.4675 2.47893,0 -1.49993,-2.18902 -11.85576,-6.5226 -6.04324,-2.5289 -13.0127,-5.7505 -15.4877,-7.15911 -3.2395,-1.84372 -7.86133,-3.06342 -16.5,-4.35436 -32.41387,-4.84385 -65.75779,-14.66681 -90,-26.51358 -27.518787,-13.44797 -59.885081,-44.89596 -72.911772,-70.84308 -4.956979,-9.87353 -9.427483,-25.16802 -7.82491,-26.77059 0.610231,-0.61023 2.835093,1.57483 6.132502,6.02279 7.735712,10.4349 21.733467,23.17201 35.41723,32.22755 7.013574,4.64138 22.888581,13.37097 37.39684,20.56433 24.90422,12.34779 41.38479,22.22583 50.44356,30.23458 2.5594,2.26274 4.92097,4.11407 5.24793,4.11407 0.32697,0 -1.45314,-2.7815 -3.95579,-6.18111 -13.52612,-18.37393 -21.60751,-41.64067 -28.3857,-81.72392 -1.71179,-10.12276 -4.69497,-24.68949 -6.62928,-32.37051 -1.93431,-7.68102 -3.36612,-14.41793 -3.1818,-14.97089 0.42552,-1.27656 8.81474,8.39892 16.1008,18.56941 13.69958,19.12305 20.66768,33.18087 30.10051,60.72647 3.1056,9.0689 5.96229,16.94105 6.34821,17.49365 0.38592,0.5526 3.84413,3.46897 7.68491,6.48082 3.84079,3.01184 18.46579,16.66721 32.5,30.34526 26.68057,26.00345 37.74751,35.6065 45.74134,39.69087 2.62648,1.34197 12.1401,4.91495 21.14137,7.93995 9.00127,3.025 16.42627,5.92421 16.5,6.44268 0.0737,0.51848 -5.71595,2.20887 -12.86595,3.75641 -7.15,1.54755 -22.675,5.09455 -34.5,7.88222 -35.04023,8.26053 -57.55489,10.56418 -76.38632,7.81568 z m 417.68776,0.1 c -11.10261,-1.16008 -21.5688,-3.16974 -49.30144,-9.4666 -12.925,-2.9347 -27.91229,-6.3177 -33.3051,-7.51779 -5.96678,-1.32782 -9.66005,-2.61711 -9.43458,-3.29353 0.20379,-0.61135 7.99108,-3.63129 17.3051,-6.71097 9.31402,-3.07968 18.79688,-6.5749 21.07303,-7.76715 7.66728,-4.01616 19.32955,-14.21614 44.65845,-39.05889 13.8617,-13.59565 28.8031,-27.51301 33.2031,-30.92745 7.87417,-6.11045 8.04504,-6.33821 10.86392,-14.48133 12.19181,-35.21947 18.78488,-49.25098 31.92837,-67.95058 11.14907,-15.86208 20.09539,-25.16693 18.33778,-19.07266 -3.72803,12.92639 -7.1304,27.9676 -9.55709,42.25 -3.6734,21.62005 -5.361,29.64887 -8.59425,40.88742 -5.44402,18.92309 -12.55897,34.17047 -21.16256,45.35148 l -4.68681,6.09086 7.43532,-6.08787 c 11.24266,-9.20524 22.89504,-16.11329 51.09356,-30.29057 39.85507,-20.0378 57.90916,-33.50852 72.9156,-54.40461 1.97902,-2.75574 3.65374,-4.21913 4.20151,-3.67136 2.3032,2.3032 -4.27079,22.35639 -11.00787,33.57822 -11.89455,19.81252 -33.36593,41.81168 -55.12776,56.48283 -21.03858,14.18355 -66.33379,29.20209 -104.63972,34.69541 -7.77456,1.11492 -12.96088,2.3817 -14.72883,3.59755 -1.50085,1.03217 -7.43307,3.84758 -13.18271,6.25646 -11.42517,4.78673 -16.69287,7.41192 -14.99757,7.47414 0.59998,0.022 16.57498,-1.96671 35.5,-4.4194 18.92501,-2.45269 41.15911,-5.17349 49.40911,-6.04622 29.0854,-3.07681 47.67083,-9.63544 63.5,-22.40857 4.125,-3.32861 7.82636,-6.05961 8.22525,-6.06889 1.16013,-0.027 -0.9019,4.56973 -4.82506,10.75616 -7.55485,11.91322 -27.01034,28.38189 -45.40019,38.4303 -9.32394,5.0947 -23.30577,10.41138 -32,12.16819 -9.68025,1.95605 -27.27411,2.71463 -37.69856,1.62542 z M 225.36398,558.25 c 1.19107,-7.12005 2.82132,-14.30211 6.63945,-29.25 2.70973,-10.60851 10.91589,-35.49487 21.10372,-64 10.18428,-28.49522 21.7475,-63.66412 25.81009,-78.5 4.44263,-16.22368 7.0331,-33.68739 5.3616,-36.14523 C 283.85048,349.72489 277.65,345.25038 270.5,340.41142 251.5713,327.60087 245.32201,323.20988 236.46913,316.5 c -4.35395,-3.3 -8.88037,-6.675 -10.05872,-7.5 -1.17834,-0.825 -5.67834,-4.2 -10,-7.5 -4.32165,-3.3 -8.84997,-6.675 -10.06293,-7.5 -1.21296,-0.825 -5.6448,-4.2 -9.84854,-7.5 -11.52923,-9.05062 -14.6797,-11.46051 -23.53154,-18 -4.46687,-3.3 -10.8994,-8.11994 -14.29449,-10.71097 -3.3951,-2.59104 -7.74791,-5.8711 -9.67291,-7.28903 -1.925,-1.41793 -6.29186,-4.69799 -9.70413,-7.28903 -5.60347,-4.25487 -9.00599,-6.70996 -14.70835,-10.6128 -1.19036,-0.81472 -1.67419,-1.92993 -1.28138,-2.95356 C 123.88643,228.13238 132.71092,228 232.93343,228 h 108.9962 l 1.19158,-2.22647 c 0.65536,-1.22457 1.54012,-3.58707 1.96613,-5.25 0.42601,-1.66294 1.97504,-7.07353 3.44229,-12.02353 1.46726,-4.95 3.52304,-11.925 4.56842,-15.5 1.04537,-3.575 2.75827,-9.425 3.80644,-13 1.04817,-3.575 3.75443,-13.025 6.01391,-21 2.25949,-7.975 4.72045,-16.3 5.46881,-18.5 0.74835,-2.2 2.16014,-6.925 3.1373,-10.5 0.97716,-3.575 2.78393,-9.875 4.01505,-14 1.23111,-4.125 2.99678,-10.2 3.9237,-13.5 0.92693,-3.3 2.78683,-9.6 4.13312,-14 2.82858,-9.244453 5.39494,-17.888612 8.46133,-28.5 1.192,-4.125 3.00099,-9.978214 4.01996,-13.007142 1.01896,-3.028929 2.22786,-7.303929 2.68643,-9.5 0.69155,-3.311867 1.25179,-4.005354 3.28483,-4.066128 3.09826,-0.09262 4.95107,1.287095 4.95107,3.686865 0,1.027788 1.06671,5.135188 2.37047,9.127556 1.30376,3.992367 3.35341,10.633849 4.55479,14.758849 3.42753,11.768619 5.83032,19.845603 8.47836,28.5 1.34629,4.4 3.20619,10.7 4.13312,14 0.92692,3.3 2.75465,9.6 4.06162,14 1.30697,4.4 3.02234,10.25 3.81193,13 0.78959,2.75 2.57959,8.825 3.97778,13.5 1.39818,4.675 3.24881,10.975 4.1125,14 0.86369,3.025 2.72367,9.325 4.1333,14 4.53821,15.05085 9.35473,31.37739 12.3905,42 1.17886,4.125 2.77336,8.9625 3.54333,10.75 l 1.39994,3.25 h 108.39374 c 92.88069,0 108.56395,0.2051 109.58309,1.43309 1.33968,1.61421 0.0279,3.16779 -6.38934,7.56691 -2.00578,1.375 -6.43873,4.61994 -9.851,7.21097 -3.41227,2.59104 -7.77913,5.8711 -9.70413,7.28903 -1.925,1.41793 -6.27688,4.69799 -9.67085,7.28903 -3.39396,2.59103 -8.99467,6.73597 -12.44602,9.21097 -3.45135,2.475 -8.09947,5.94497 -10.32915,7.71103 -10.93785,8.66355 -26.50086,20.44299 -43.32497,32.7921 -1.50095,1.10172 -6.30323,4.70172 -10.67171,8 -8.93134,6.7433 -15.28541,11.20387 -34.0573,23.90829 -7.15,4.83896 -13.35048,9.31347 -13.77884,9.94335 -1.6715,2.45784 0.91897,19.92155 5.3616,36.14523 4.05649,14.8136 15.58983,49.89578 25.80703,78.5 5.98863,16.76583 17.39806,50.96268 19.68475,59 0.86064,3.025 1.94651,6.85 2.41305,8.5 0.46654,1.65 1.14713,4.575 1.51241,6.5 0.36528,1.925 1.05016,4.85 1.52195,6.5 4.05635,14.18633 3.48642,18.91336 -1.76923,14.67429 -1.514,-1.22114 -5.00272,-3.76897 -7.75272,-5.66184 -2.75,-1.89286 -7.475,-5.25338 -10.5,-7.4678 -3.025,-2.21443 -8.425,-6.0625 -12,-8.55127 -7.57214,-5.27141 -19.83889,-13.8463 -30.20059,-21.11126 -10.75244,-7.53892 -27.79936,-19.32295 -40.29941,-27.85779 -6.05,-4.13084 -12.8,-8.81423 -15,-10.40753 -6.6246,-4.79772 -42.53173,-28.37386 -49.5,-32.50103 -3.575,-2.11741 -7.4,-3.84983 -8.5,-3.84983 -1.1,0 -4.925,1.73242 -8.5,3.84983 -6.96827,4.12717 -42.8754,27.70331 -49.5,32.50103 -2.2,1.5933 -8.95,6.27669 -15,10.40753 -12.50005,8.53484 -29.54697,20.31887 -40.29941,27.85779 -10.3617,7.26496 -22.62845,15.83985 -30.20059,21.11126 -3.575,2.48877 -8.975,6.34072 -12,8.55988 -3.025,2.21917 -7.3,5.20587 -9.5,6.63713 -2.2,1.43125 -5.47816,3.88643 -7.2848,5.45595 -4.48561,3.89687 -5.61805,3.68763 -4.85122,-0.89634 z m -106.00649,-30 C 57.61123,491.1692 14.172458,444.72614 2.4239102,403.22912 c -2.46840379,-8.71864 -2.5994409,-10.26737 -2.19984208,-26 C 0.62965174,361.26087 1.2199549,357 3.0266221,357 c 0.9872983,0 3.3406613,7.07931 5.450819,16.39697 3.0318609,13.38756 9.9976549,23.20759 35.5403749,50.10303 17.289601,18.20525 26.971525,29.98167 40.811888,49.64074 5.318663,7.55472 9.798859,13.17655 9.955991,12.49295 0.157132,-0.6836 -1.333064,-6.39333 -3.311547,-12.6883 C 89.495665,466.65043 87.236254,458.8 86.453234,455.5 c -2.200823,-9.27527 -1.796555,-25.79175 1.076973,-44 4.622519,-29.29082 6.339655,-41.911 7.04923,-51.80868 0.386757,-5.39478 1.047715,-9.44478 1.468796,-9 1.369877,1.44696 8.742437,25.8203 11.330967,37.45966 3.31092,14.88759 5.24266,29.79294 7.10847,54.84902 3.12112,41.91361 4.74002,49.87726 16.92367,83.25 2.59715,7.11397 3.19341,9.75 2.2054,9.75 -0.74475,0 -7.16142,-3.4875 -14.25925,-7.75 z m 552.14436,3.5 c 0.71836,-2.3375 3.38597,-9.77603 5.92802,-16.53006 7.7147,-20.49735 10.25622,-34.46934 13.04595,-71.71994 1.98186,-26.46331 3.86357,-40.68005 7.47827,-56.5 4.33428,-18.96924 12.0352,-41.94546 12.04933,-35.95 0.0142,6.03067 2.65531,28.012 5.52098,45.95 6.70172,41.95026 6.66666,48.54146 -0.37874,71.19545 -4.72393,15.18948 -5.58598,18.62198 -4.3459,17.30455 0.51771,-0.55 5.3018,-7.13842 10.63132,-14.64093 14.21279,-20.00774 24.51168,-32.47107 41.22963,-49.89453 24.29387,-25.31908 30.93006,-34.62848 33.83938,-47.47069 C 798.67952,363.87353 800.98894,357 802.04182,357 c 2.10435,0 3.43179,9.04842 3.37421,23 -0.0531,12.85763 -0.37071,15.51878 -2.80441,23.4945 -11.19014,36.67234 -43.07046,74.17509 -92.64551,108.9845 -12.14555,8.52807 -36.72574,23.521 -38.56155,23.521 -0.92984,0 -0.90738,-0.98087 0.0973,-4.25 z M 64.388771,427.97985 C 50.461997,411.34312 29.910543,381.73266 19.506146,363.31314 13.471654,352.62993 8.4002002,338.31309 4.8570795,321.95848 1.8140562,307.91226 1.499693,275.27808 4.2795028,262 c 2.0779388,-9.92551 7.5651082,-27.78593 8.7642192,-28.52702 1.080977,-0.66808 1.735349,5.02089 2.449485,21.2953 0.725465,16.53259 2.653946,23.53307 14.073671,51.08811 7.617739,18.38111 11.660708,29.97077 20.108538,57.64361 l 2.747477,9 0.814635,-6.5 c 4.269573,-34.06705 6.37704,-39.75745 26.340701,-71.12291 5.255962,-8.25778 11.042679,-18.48687 12.859373,-22.73131 8.472088,-19.79378 10.066768,-20.33902 9.879608,-3.37796 -0.20613,18.67912 -5.19681,41.46128 -19.684996,89.86078 -10.270054,34.30833 -11.024401,38.41773 -10.439672,56.8714 0.261412,8.25 0.209683,16.34093 -0.114955,17.97985 -0.588596,2.97151 -0.610124,2.95611 -7.688816,-5.5 z m 668.506579,4.92514 C 732.83779,431.03224 732.70977,421.175 732.61086,411 c -0.20083,-20.65885 0.5415,-16.96688 -11.25972,-56 -8.36176,-27.65691 -13.7448,-48.47409 -16.3927,-63.39353 -2.27373,-12.81121 -2.99915,-32.96576 -1.24951,-34.7154 1.25312,-1.25312 4.16175,3.1384 7.20543,10.87895 3.33197,8.47372 6.38898,14.02196 16.69241,30.29544 16.53387,26.114 21.14441,38.31878 23.52757,62.281 0.64801,6.51555 1.50409,11.24055 1.9024,10.5 0.39831,-0.74055 2.62619,-7.87146 4.95084,-15.84646 5.2716,-18.08488 10.11924,-31.66215 17.49501,-49 11.61983,-27.31415 14.35669,-38.46099 14.60889,-59.5 0.0593,-4.95 0.44988,-10.125 0.86788,-11.5 l 0.75999,-2.5 1.12169,2.76607 c 2.48169,6.11985 5.214,15.39848 7.37767,25.05377 1.96304,8.75998 2.27958,12.97025 2.269,30.18016 -0.0138,22.47322 -1.12149,30.16764 -7.123,49.47932 -4.28673,13.79385 -7.00935,19.36223 -18.10098,37.02068 -13.24374,21.08472 -35.52485,51.42882 -42.15142,57.40499 -2.10829,1.90136 -2.11251,1.89851 -2.21696,-1.5 z M 746.97869,305.87912 C 738.78048,285.59028 737.33981,283.13975 720.00625,260 c -16.35614,-21.83492 -24.8417,-34.95836 -32.00648,-49.5 -7.15967,-14.53126 -9.91233,-22.74558 -10.71952,-31.98854 l -0.61032,-6.98853 24.17897,23.47559 c 13.29843,12.91157 26.16035,25.77061 28.58204,28.57565 6.55816,7.59629 12.33198,16.16771 13.66084,20.27997 3.0854,9.54797 7.16359,20.146 7.75279,20.14728 0.36049,7.8e-4 0.49372,-6.41172 0.29608,-14.25 -0.19764,-7.83828 0.25236,-23.70142 1,-35.25142 2.02735,-31.3196 1.71436,-51.47262 -1.01724,-65.5 -1.99671,-10.25354 -4.26256,-20.21488 -5.74348,-25.25 -0.94766,-3.22204 2.36178,-1.86922 6.11585,2.5 13.3959,15.59103 24.9324,42.10791 29.06061,66.79636 1.31725,7.87776 1.57769,13.70139 1.1544,25.81323 -0.63526,18.17676 -2.88665,29.19477 -10.14338,49.64041 -2.53774,7.15 -6.22271,19.50801 -8.18883,27.46224 -4.26228,17.2437 -7.12745,26.76452 -8.26625,27.46834 -0.45838,0.28329 -4.11852,-7.61487 -8.13364,-17.55146 z M 47.636469,318.30091 c -0.856946,-2.6405 -3.361257,-12.03564 -5.565137,-20.87808 -2.20388,-8.84244 -5.785585,-21.04204 -7.959345,-27.11021 -2.17376,-6.06817 -5.450103,-16.83345 -7.280763,-23.92283 -3.201841,-12.3994 -3.328526,-13.61265 -3.329849,-31.88979 -0.0011,-14.81432 0.408394,-20.87254 1.858683,-27.5 3.933553,-17.97535 11.399689,-36.59503 20.01274,-49.90944 5.101902,-7.88674 12.453429,-16.31599 13.607718,-15.6026 0.41191,0.25457 -0.517504,6.05013 -2.065364,12.87901 -6.406982,28.26648 -6.878624,37.94697 -3.928511,80.63303 0.62719,9.075 0.999274,23.79768 0.826852,32.71706 -0.368971,19.08697 0.134335,19.30191 6.011173,2.56704 6.001239,-17.08911 9.73561,-21.74615 44.427014,-55.40385 l 24.07872,-23.36123 -0.61153,6.99049 c -1.64688,18.82588 -14.33829,42.79002 -43.120408,81.42072 C 76.169341,271.2436 68.450376,282.075 67.445206,284 c -1.005169,1.925 -5.070457,11.35964 -9.033973,20.96586 -3.963516,9.60622 -7.658708,17.61663 -8.211537,17.80091 -0.55283,0.18427 -1.706282,-1.82536 -2.563227,-4.46586 z M 734,213.89675 c -7.49258,-9.6109 -21.0552,-22.55145 -42.5,-40.55066 -27.35445,-22.95935 -40.91181,-37.80938 -46.57077,-51.0112 -2.77476,-6.47325 -4.90831,-15.83805 -4.86065,-21.33489 l 0.039,-4.5 5.69621,6.47466 c 10.57381,12.01887 14.7444,15.61015 33.74742,29.05983 13.95045,9.87365 21.87183,16.32711 30.03013,24.46521 l 11.08135,11.05392 -2.30179,-9.73975 c -1.26599,-5.35687 -5.46884,-21.11893 -9.33966,-35.02681 -8.5017,-30.546605 -12.00888,-38.35883 -22.04518,-49.10561 -3.8673,-4.141057 -6.61343,-7.78754 -6.10253,-8.103295 1.82131,-1.125632 13.83808,3.451264 19.68253,7.496601 C 729.07269,92.813024 743,125.81628 743,173.65326 c 0,12.44635 -1.76473,40.27626 -2.82641,44.5726 -0.65925,2.66784 -0.79068,2.57568 -6.17359,-4.32911 z m -669.295472,2.5539 C 63.141413,206.41372 61.800038,176.21262 62.374944,164 c 1.39903,-29.71934 7.204046,-50.37927 19.294331,-68.66813 4.515028,-6.829838 15.068316,-17.400063 22.223165,-22.258827 5.95754,-4.045686 18.47621,-9.037725 19.67013,-7.843806 0.37465,0.374654 -2.33002,3.963843 -6.01038,7.975976 -9.2188,10.049826 -13.14881,18.681899 -20.438941,44.893157 -7.941518,28.55327 -12.277374,45.85343 -11.911234,47.52607 0.168151,0.76817 2.258667,-1.04863 4.797985,-4.16978 6.003188,-7.37867 17.1734,-16.61642 37.99765,-31.42399 9.47904,-6.74029 19.6085,-14.79208 22.50991,-17.89287 2.90141,-3.10079 7.33872,-7.8878 9.86069,-10.6378 l 4.58539,-5 0.0232,4.5399 c 0.0571,11.17727 -6.15703,25.83249 -16.32244,38.49454 -6.57659,8.19182 -15.70415,16.84519 -32.65438,30.95798 -25.7446,21.43498 -38.368245,33.63751 -48.090106,46.48583 l -2.590106,3.42306 -0.61526,-3.95066 z M 693.7856,130.69501 C 676.23611,118.65531 656.49202,98.003772 625.13122,58.885248 611.3612,41.708936 600.31263,27.303165 600.57885,26.872423 c 0.77045,-1.246615 19.92286,5.792123 31.64314,11.629227 31.60301,15.739402 51.64688,38.234038 62.27216,69.88619 4.0447,12.04895 6.57608,25.66261 4.75585,25.57681 -0.4125,-0.0195 -2.87148,-1.49078 -5.4644,-3.26964 z M 105.43439,129.25 c 8.62284,-49.219216 38.00801,-82.675566 88.00157,-100.19378 4.91477,-1.722184 9.57686,-3.001864 10.36018,-2.843732 C 204.68344,26.39161 195.88368,38.186833 180.45428,57.5 161.37985,81.375686 151.75969,92.42916 138.5941,105.59694 123.67246,120.52106 108.7075,133 105.73188,133 c -0.55306,0 -0.67817,-1.57707 -0.29749,-3.75 z"
       id="path181" />
  </g>
</svg>
