<?xml version="1.0" encoding="UTF-8" standalone="no"?>
<!-- Created with Inkscape (http://www.inkscape.org/) -->

<svg
   version="1.1"
   id="svg555"
   width="1052.8"
   height="1015.4667"
   viewBox="0 0 1052.8 1015.4667"
   sodipodi:docname="RSI black.svg"
   inkscape:version="1.2.2 (732a01da63, 2022-12-09)"
   xmlns:inkscape="http://www.inkscape.org/namespaces/inkscape"
   xmlns:sodipodi="http://sodipodi.sourceforge.net/DTD/sodipodi-0.dtd"
   xmlns="http://www.w3.org/2000/svg"
   xmlns:svg="http://www.w3.org/2000/svg">
  <defs
     id="defs559" />
  <sodipodi:namedview
     id="namedview557"
     pagecolor="#ffffff"
     bordercolor="#000000"
     borderopacity="0.25"
     inkscape:showpageshadow="2"
     inkscape:pageopacity="0.0"
     inkscape:pagecheckerboard="0"
     inkscape:deskcolor="#d1d1d1"
     showgrid="false"
     showguides="true"
     inkscape:zoom="1.0113577"
     inkscape:cx="542.34026"
     inkscape:cy="586.83491"
     inkscape:window-width="1649"
     inkscape:window-height="1259"
     inkscape:window-x="2028"
     inkscape:window-y="80"
     inkscape:window-maximized="0"
     inkscape:current-layer="g561" />
  <g
     inkscape:groupmode="layer"
     inkscape:label="Image"
     id="g561">
    <path
       style="fill:#000000;stroke-width:2.667;stroke-dasharray:none;stroke:#ffffff;stroke-opacity:1"
       d="m 523.88913,904.11245 c 0,-1.68816 -0.72,-3.66693 -1.6,-4.39727 -1.0246,-0.85033 -1.6,-3.21096 -1.6,-6.56408 0,-3.67041 -0.47846,-5.4198 -1.6,-5.85018 -1.11336,-0.42724 -1.6,-2.16434 -1.6,-5.71126 0,-2.80351 -0.71705,-6.47215 -1.59343,-8.15255 -0.87639,-1.68039 -1.59639,-5.06693 -1.6,-7.52564 -0.003,-2.45871 -0.48657,-4.76704 -1.07324,-5.12962 -0.58667,-0.36258 -1.06667,-2.8252 -1.06667,-5.47248 0,-2.8562 -0.65055,-5.46379 -1.6,-6.41324 -0.89514,-0.89515 -1.61665,-3.56351 -1.6378,-6.05714 -0.0208,-2.45142 -0.72378,-5.65714 -1.5622,-7.12381 -0.83842,-1.46666 -1.54142,-4.66666 -1.56219,-7.11111 -0.0208,-2.44444 -0.5409,-4.61214 -1.15579,-4.8171 -0.61488,-0.20496 -1.40204,-3.12496 -1.74923,-6.4889 -0.34719,-3.36392 -1.04409,-6.11622 -1.54868,-6.11622 -0.5046,0 -0.9327,-2.52 -0.95136,-5.6 -0.0195,-3.22319 -0.69861,-6.4788 -1.6,-7.67054 -0.86134,-1.1388 -1.56608,-4.11047 -1.56608,-6.60371 0,-2.49325 -0.48,-4.82984 -1.06667,-5.19242 -0.58666,-0.36258 -1.06666,-3.00706 -1.06666,-5.87662 0,-3.49213 -0.52089,-5.50887 -1.57522,-6.09891 -0.97517,-0.54574 -1.73195,-2.99651 -1.98665,-6.43363 -0.46582,-6.28619 -2.02434,-8.79084 -5.47009,-8.79084 -1.3039,0 -3.23952,-0.96 -4.30138,-2.13333 -1.06185,-1.17334 -2.78791,-2.13334 -3.8357,-2.13334 -1.04778,0 -2.20172,-0.48 -2.5643,-1.06666 -0.36258,-0.58667 -1.77955,-1.06667 -3.14883,-1.06667 -1.36928,0 -2.76588,-0.72 -3.10357,-1.6 -0.35891,-0.93532 -1.95724,-1.6 -3.84746,-1.6 -1.77841,0 -3.23347,-0.48 -3.23347,-1.06667 0,-0.58666 -1.21506,-1.06666 -2.70014,-1.06666 -1.48509,0 -2.97644,-0.72 -3.31412,-1.6 -0.3377,-0.88 -1.7777,-1.6 -3.2,-1.6 -1.42232,0 -2.86232,-0.72 -3.2,-1.6 -0.3377,-0.88 -1.70385,-1.6 -3.03592,-1.6 -1.33207,0 -3.01948,-0.72 -3.74982,-1.6 -0.73034,-0.88 -2.46911,-1.6 -3.86394,-1.6 -1.39483,0 -2.53606,-0.48 -2.53606,-1.06667 0,-0.58667 -1.38865,-1.06667 -3.08588,-1.06667 -1.75902,0 -3.34987,-0.68797 -3.69986,-1.6 -0.33768,-0.88 -1.77768,-1.6 -3.2,-1.6 -1.4223,0 -2.8623,-0.72 -3.2,-1.6 -0.33768,-0.88 -1.77768,-1.6 -3.2,-1.6 -1.4223,0 -2.8623,-0.72 -3.2,-1.6 -0.33768,-0.88 -1.80071,-1.6 -3.25117,-1.6 -1.45045,0 -2.93384,-0.48 -3.29642,-1.06667 -0.36258,-0.58666 -1.83092,-1.06666 -3.26296,-1.06666 -1.43204,0 -2.60371,-0.48 -2.60371,-1.06667 0,-0.58667 -0.92572,-1.06667 -2.05714,-1.06667 -1.13144,0 -2.77714,-0.72 -3.65714,-1.6 -1.94962,-1.94962 -3.56149,-2.02742 -5.52489,-0.26666 -3.69974,3.31786 -4.77679,4 -6.31581,4 -0.90476,0 -1.64502,0.48 -1.64502,1.06666 0,0.58667 -0.51646,1.06667 -1.14769,1.06667 -0.63122,0 -3.95476,2.16 -7.38564,4.8 -3.43088,2.64 -6.75442,4.8 -7.38565,4.8 -0.63123,0 -1.14769,0.48 -1.14769,1.06667 0,0.58667 -0.72,1.06667 -1.6,1.06667 -0.88,0 -1.6,0.45748 -1.6,1.01661 0,0.55915 -1.72276,1.83413 -3.82835,2.83331 -2.1056,0.99916 -4.38107,2.70168 -5.05659,3.78337 -0.67553,1.08169 -2.07276,1.96671 -3.10498,1.96671 -1.03221,0 -1.87674,0.48 -1.87674,1.06666 0,0.58667 -0.73506,1.06667 -1.63348,1.06667 -0.89842,0 -1.90977,0.72 -2.24745,1.6 -0.3377,0.88 -1.52263,1.6 -2.6332,1.6 -1.11056,0 -2.01921,0.48 -2.01921,1.06667 0,0.58666 -0.60453,1.06666 -1.34341,1.06666 -0.73888,0 -1.94295,0.96 -2.67571,2.13334 -0.73276,1.17333 -2.04822,2.13333 -2.92324,2.13333 -0.87503,0 -1.59097,0.48 -1.59097,1.06667 0,0.58666 -0.96,1.06666 -2.13333,1.06666 -1.18519,0 -2.13334,0.71112 -2.13334,1.6 0,0.88889 -0.94815,1.6 -2.13333,1.6 -1.17333,0 -2.13333,0.48 -2.13333,1.06667 0,0.58667 -0.51429,1.06667 -1.14286,1.06667 -0.62857,0 -1.77501,0.6 -2.54764,1.33333 -3.50483,3.32658 -6.04887,5.06667 -7.40757,5.06667 -0.81053,0 -1.76166,0.75042 -2.11361,1.6676 -0.35196,0.91719 -1.1267,1.36676 -1.72166,0.99906 -0.59495,-0.3677 -1.36969,0.0819 -1.72165,0.99906 -0.35196,0.91719 -1.2578,1.66761 -2.01299,1.66761 -0.75519,0 -2.847,1.37684 -4.64845,3.05966 -1.80145,1.6828 -3.46382,2.87121 -3.69414,2.64088 -0.23032,-0.23032 -1.02593,0.31284 -1.76804,1.20701 -0.7421,0.89419 -1.95914,1.62578 -2.70455,1.62578 -0.7454,0 -1.63155,0.72 -1.96925,1.6 -0.33768,0.88 -1.38333,1.6 -2.32364,1.6 -0.94032,0 -2.37873,0.6 -3.19645,1.33334 -3.43997,3.0849 -4.72218,4 -5.60471,4 -0.51364,0 -2.33391,1.42666 -4.04501,3.17037 -2.65615,2.70674 -3.93005,3.1747 -8.71112,3.2 -3.2306,0.0171 -5.6,-0.44584 -5.6,-1.09412 0,-0.98586 -4.31346,-5.63033 -26.93333,-29.00015 -2.78667,-2.87906 -5.06667,-5.67897 -5.06667,-6.22205 0,-0.54306 -0.72,-0.98739 -1.6,-0.98739 -0.88,0 -1.6,-0.48 -1.6,-1.06666 0,-1.4889 -3.95234,-5.2921 -4.71111,-4.53334 -0.34222,0.34222 -0.62222,-0.11054 -0.62222,-1.00614 0,-0.89561 -1.2,-2.52953 -2.66667,-3.63096 -1.46666,-1.10141 -2.66666,-2.60865 -2.66666,-3.3494 0,-0.74076 -0.48,-1.34683 -1.06667,-1.34683 -1.28803,0 -5.33333,-3.90859 -5.33333,-5.15309 0,-0.48753 -1.2,-1.52864 -2.66667,-2.31358 -1.46667,-0.78494 -2.66667,-2.06605 -2.66667,-2.84691 0,-0.78086 -0.72,-1.41975 -1.6,-1.41975 -0.88,0 -1.6,-0.43679 -1.6,-0.97065 0,-0.53386 -3.63652,-4.67867 -8.08116,-9.2107 -8.98069,-9.15727 -11.1794,-13.02303 -8.5151,-14.97121 0.91461,-0.66878 1.66293,-1.71169 1.66293,-2.31758 0,-0.6059 0.72,-1.37791 1.6,-1.7156 0.88,-0.33769 1.6,-1.29769 1.6,-2.13334 0,-0.83564 0.72,-1.79564 1.6,-2.13333 0.88,-0.33769 1.6,-1.23512 1.6,-1.99428 0,-0.75917 1.2,-2.28147 2.66667,-3.38288 1.46666,-1.10143 2.66666,-2.67043 2.66666,-3.48666 0,-0.81623 0.72,-1.76035 1.6,-2.09804 0.88,-0.33769 1.6,-1.21539 1.6,-1.95045 0,-0.73505 1.2,-2.23762 2.66667,-3.33905 1.46667,-1.10142 2.66667,-2.59211 2.66667,-3.31263 0,-0.72053 1.45553,-2.8866 3.23451,-4.81349 1.77899,-1.9269 4.41899,-4.79284 5.86667,-6.36876 1.44768,-1.57592 2.63281,-3.25592 2.63362,-3.73334 8.2e-4,-0.4774 1.92015,-3.02802 4.2652,-5.66802 2.34504,-2.64 4.26437,-5.16 4.26519,-5.6 8.1e-4,-0.44 0.84147,-1.67773 1.86814,-2.7505 3.87489,-4.04892 6.66667,-7.70236 6.66667,-8.72428 0,-0.5822 0.42154,-1.05855 0.93676,-1.05855 0.51523,0 2.75501,-2.64 4.97731,-5.86667 2.22229,-3.22666 4.44074,-5.86666 4.92989,-5.86666 0.48916,0 0.88937,-0.51429 0.88937,-1.14286 0,-0.62857 0.6,-1.77839 1.33333,-2.55515 0.73334,-0.77677 2.53334,-2.9682 4,-4.86988 1.46667,-1.90166 3.50667,-4.21852 4.53334,-5.14856 1.02666,-0.93005 1.86666,-2.06848 1.86666,-2.52985 0,-0.74769 3.53034,-5.10806 7.2,-8.89283 0.73334,-0.75634 1.33334,-1.68373 1.33334,-2.06088 0,-0.37714 0.6,-1.35477 1.33333,-2.1725 3.11628,-3.47494 4,-4.72726 4,-5.66835 0,-0.54866 0.84,-1.32321 1.86667,-1.7212 1.77778,-0.68919 1.77778,-0.7891 0,-2.09838 -1.02667,-0.75612 -1.86667,-2.61351 -1.86667,-4.12754 0,-1.51403 -0.48,-3.04944 -1.06667,-3.41203 -0.58666,-0.36258 -1.06666,-1.84597 -1.06666,-3.29642 0,-1.45046 -0.72,-2.91349 -1.6,-3.25117 -0.88,-0.3377 -1.6,-1.56857 -1.6,-2.73529 0,-2.0144 -0.5061,-3.22976 -4.64248,-11.14836 -0.96663,-1.85052 -1.75752,-4.37052 -1.75752,-5.6 0,-1.22948 -0.48,-2.23542 -1.06667,-2.23542 -0.58667,0 -1.06667,-1.45507 -1.06667,-3.23348 0,-1.89021 -0.66468,-3.48854 -1.6,-3.84745 -0.88,-0.3377 -1.6,-1.48372 -1.6,-2.54675 0,-1.06302 -0.80336,-3.53167 -1.78523,-5.48588 -0.98189,-1.95421 -2.42189,-4.82717 -3.2,-6.38435 -0.77813,-1.55719 -1.41477,-3.59719 -1.41477,-4.53334 0,-0.93615 -0.48,-1.70209 -1.06666,-1.70209 -0.58667,0 -1.06667,-1.44 -1.06667,-3.2 0,-1.76 -0.44004,-3.2 -0.97789,-3.2 -0.53783,0 -2.00513,-3.31912 -3.26066,-7.37583 -1.25553,-4.0567 -2.93823,-7.62734 -3.73932,-7.93475 -0.87236,-0.33475 -1.22594,-1.44071 -0.8816,-2.7575 0.42734,-1.63412 0.0638,-2.2073 -1.41612,-2.23251 -1.0951,-0.0187 -2.92282,-0.73866 -4.06162,-1.6 -1.13879,-0.86134 -3.87046,-1.56608 -6.07037,-1.56608 -2.19992,0 -4.29651,-0.48 -4.65909,-1.06666 -0.36258,-0.58667 -2.80597,-1.06667 -5.42976,-1.06667 -3.25648,0 -4.96538,-0.5078 -5.3845,-1.6 -0.43,-1.12056 -2.17789,-1.6 -5.83319,-1.6 -2.87056,0 -5.21921,-0.48 -5.21921,-1.06667 0,-0.58666 -2.41506,-1.06666 -5.36681,-1.06666 -3.78652,0 -5.5476,-0.47114 -5.98079,-1.6 -0.4064,-1.05906 -2.07966,-1.6 -4.9492,-1.6 -2.38438,0 -5.09991,-0.69203 -6.03452,-1.53784 -0.93461,-0.84581 -3.95513,-1.65461 -6.71226,-1.79733 -2.95287,-0.15285 -5.23416,-0.83593 -5.55122,-1.66217 -0.33377,-0.86979 -2.35058,-1.40266 -5.30878,-1.40266 -2.62378,0 -5.06718,-0.48 -5.42976,-1.06667 -0.36258,-0.58667 -3.03091,-1.06667 -5.92962,-1.06667 -3.97367,0 -5.27038,-0.39366 -5.27038,-1.6 0,-1.20527 -1.29382,-1.6 -5.24444,-1.6 -2.88444,0 -5.42019,-0.52721 -5.63497,-1.17157 -0.21479,-0.64437 -2.76379,-1.43908 -5.66444,-1.76603 -2.90065,-0.32694 -5.9192,-1.23973 -6.70788,-2.02842 -0.78869,-0.78869 -3.29137,-1.43398 -5.5615,-1.43398 -2.27015,0 -4.42419,-0.48 -4.78677,-1.06666 -0.36258,-0.58667 -2.73214,-1.06667 -5.26567,-1.06667 -2.70798,0 -5.13181,-0.63302 -5.881179,-1.53597 -0.70111,-0.84478 -2.319879,-1.68478 -3.597276,-1.86666 l -2.322537,-0.3307 -0.276029,-56.82989 c -0.242121,-49.84869 -0.07833,-56.90575 1.333333,-57.44746 0.885149,-0.33966 1.609362,-1.20408 1.609362,-1.92091 0,-0.84353 2.117937,-1.38903 6.003196,-1.54622 3.51562,-0.14223 6.64119,-0.88086 7.54285,-1.78254 1.06543,-1.06541 3.98032,-1.53965 9.46348,-1.53965 4.57142,0 7.92381,-0.45129 7.92381,-1.06667 0,-0.62129 3.52593,-1.06667 8.44444,-1.06667 5.77156,0 8.58402,-0.4187 8.88538,-1.3228 0.42084,-1.26253 3.10062,-1.65612 25.64325,-3.76631 5.46404,-0.51149 8.63639,-1.31191 9.27069,-2.33914 0.66061,-1.06982 3.4194,-1.69168 8.76026,-1.97468 4.28778,-0.2272 8.25198,-0.84448 8.80931,-1.37175 0.55733,-0.52726 4.42133,-0.95865 8.58667,-0.95865 4.16533,0 8.07503,-0.5017 8.68821,-1.11488 0.61319,-0.6132 4.56469,-1.40411 8.78112,-1.7576 4.21643,-0.35349 7.91905,-1.05179 8.22806,-1.55178 0.30902,-0.5 1.49352,-0.90907 2.63223,-0.90907 1.51263,0 2.07038,-0.73892 2.07038,-2.74286 0,-1.50857 0.72,-3.46286 1.6,-4.34286 0.88,-0.88 1.6,-2.46694 1.6,-3.52653 0,-1.0596 0.72,-2.52409 1.6,-3.25442 0.88,-0.73034 1.6,-2.23563 1.6,-3.34508 0,-1.10946 0.451,-2.85069 1.00224,-3.8694 0.55123,-1.01871 1.2853,-3.19182 1.63126,-4.82915 0.34597,-1.63732 1.09497,-2.68899 1.66444,-2.33704 0.57315,0.35422 1.05054,-0.69775 1.06931,-2.35638 0.0187,-1.64796 0.73867,-3.92803 1.6,-5.06682 0.86134,-1.1388 1.56608,-3.1788 1.56608,-4.53334 0,-1.35454 0.48,-2.46279 1.06667,-2.46279 0.58666,0 1.06666,-1.14123 1.06666,-2.53607 0,-1.39482 0.72,-3.1336 1.6,-3.86393 0.88,-0.73034 1.6,-2.48417 1.6,-3.89742 0,-1.41325 0.72,-2.84583 1.6,-3.18351 0.91204,-0.34999 1.6,-1.94084 1.6,-3.69986 0,-1.69723 0.48,-3.08588 1.06667,-3.08588 0.58667,0 1.06667,-1.10826 1.06667,-2.46279 0,-1.35454 0.70473,-3.39454 1.56608,-4.53334 0.86133,-1.13879 1.58133,-3.15054 1.6,-4.47054 0.0187,-1.32 0.50478,-2.4 1.08026,-2.4 0.57549,0 1.36711,-1.32 1.75914,-2.93333 0.39204,-1.61333 1.36118,-3.88014 2.15366,-5.03734 0.79247,-1.1572 1.44086,-3.1572 1.44086,-4.44444 0,-1.28725 0.6,-2.5419 1.33333,-2.78812 1.51678,-0.50927 0.20222,-3.54505 -4.8,-11.08479 -1.61333,-2.43175 -2.93333,-4.90039 -2.93333,-5.48589 0,-0.58548 -0.72,-1.3408 -1.6,-1.67849 -0.88,-0.33769 -1.6,-1.58904 -1.6,-2.78079 0,-1.19175 -0.48,-2.16681 -1.06667,-2.16681 -0.58667,0 -1.06667,-0.75202 -1.06667,-1.67117 0,-0.91914 -1.2,-3.24444 -2.66666,-5.16735 -1.46667,-1.9229 -2.66667,-3.97743 -2.66667,-4.56562 0,-0.58819 -0.96,-2.17633 -2.13333,-3.52919 -1.17334,-1.35287 -2.13334,-3.10632 -2.13334,-3.89655 0,-0.79023 -0.36617,-1.43679 -0.81372,-1.43679 -0.81471,0 -2.7415,-3.16057 -4.06421,-6.66666 -0.38731,-1.02667 -1.12823,-1.86667 -1.64647,-1.86667 -0.51824,0 -0.94226,-0.93615 -0.94226,-2.08033 0,-1.14418 -0.60045,-2.46418 -1.33434,-2.93333 -0.73388,-0.46916 -2.44836,-3.01301 -3.80996,-5.65301 -4.81069,-9.3274 -7.13142,-13.33735 -7.92237,-13.68888 -0.44,-0.19557 -0.8,-1.03149 -0.8,-1.85763 0,-0.82615 -0.96,-2.1016 -2.13333,-2.83436 -1.17334,-0.73276 -2.13334,-2.41683 -2.13334,-3.74238 0,-1.32555 -0.48,-2.41008 -1.06666,-2.41008 -0.58667,0 -1.06667,-0.68572 -1.06667,-1.52381 0,-0.8381 -0.61821,-2.1581 -1.3738,-2.93333 -0.7556,-0.77524 -2.1998,-3.17092 -3.20935,-5.32376 -1.00954,-2.15282 -2.33747,-4.08153 -2.95094,-4.28602 -0.61348,-0.20449 -1.24715,-1.0831 -1.40816,-1.95244 -0.41493,-2.24037 -4.23403,-8.49916 -5.19108,-8.50723 -0.44,-0.004 -0.8,-0.96674 -0.8,-2.14008 0,-1.17333 -0.48,-2.13333 -1.06667,-2.13333 -0.58667,0 -1.06667,-0.90865 -1.06667,-2.01921 0,-1.11057 -0.72,-2.2955 -1.6,-2.6332 -2.32902,-0.89373 -1.99368,-6.68724 0.53334,-9.21426 1.17333,-1.17333 2.3364,-2.13333 2.58462,-2.13333 0.2482,0 1.97897,-1.38923 3.84615,-3.087176 5.42263,-4.93116 7.43589,-6.55051 7.43589,-5.98101 0,0.2925 2.20278,-1.5075 4.89505,-4 8.50487,-7.87375 8.95859,-8.26515 9.58115,-8.26515 0.33523,0 1.22419,-0.6 1.97545,-1.33333 0.75128,-0.73333 3.68202,-3.25333 6.51279,-5.6 2.83076,-2.34667 5.74752,-4.86667 6.48168,-5.6 0.73416,-0.73333 1.84913,-1.33333 2.47769,-1.33333 0.62858,0 1.14286,-0.48 1.14286,-1.06667 0,-0.586667 0.72,-1.066667 1.6,-1.066667 0.88,0 1.6,-0.72 1.6,-1.6 0,-0.88 0.48416,-1.6 1.0759,-1.6 0.94682,0 5.00388,-3.199462 9.12989,-7.2 0.75634,-0.733333 1.6329,-1.333333 1.94791,-1.333333 0.31501,0 1.95188,-1.320001 3.63748,-2.933334 8.56673,-8.199422 10.17144,-9.188072 15.62004,-9.623357 2.96383,-0.236778 6.58878,0.112224 8.05545,0.775561 3.96047,1.791221 7.66849,4.003486 8.41076,5.017997 1.03988,1.421273 5.27261,3.563132 7.04143,3.563132 0.88796,0 1.61447,0.72 1.61447,1.6 0,0.880001 0.74026,1.600001 1.64503,1.600001 1.58359,0 2.79515,0.774073 6.73347,4.302039 1.00407,0.899456 3.60966,2.481976 5.79021,3.516713 2.18054,1.034736 3.96463,2.338818 3.96463,2.897959 0,0.559143 0.96,1.016622 2.13333,1.016622 1.17333,0 2.13333,0.48 2.13333,1.066667 0,0.58667 0.69038,1.06667 1.53417,1.06667 0.8438,0 3.11076,1.44 5.03772,3.2 1.92695,1.76 4.35657,3.2 5.39916,3.2 1.0426,0 1.89562,0.48 1.89562,1.06666 0,0.58667 0.73506,1.06667 1.63347,1.06667 0.89842,0 1.90977,0.72 2.24746,1.6 0.33769,0.88 1.2579,1.6 2.0449,1.6 0.78701,0 2.73824,1.21158 4.33608,2.69241 1.59783,1.48083 4.02257,2.97286 5.38829,3.31563 1.36573,0.34278 2.48313,1.05119 2.48313,1.57426 0,0.52307 0.73506,0.95103 1.63348,0.95103 0.89842,0 1.90977,0.72 2.24745,1.6 0.3377,0.88 1.52263,1.6 2.6332,1.6 1.11056,0 2.01921,0.48 2.01921,1.06667 0,0.58667 0.75692,1.06667 1.68204,1.06667 0.92514,0 3.12206,1.44 4.88206,3.2 1.76,1.76 4.12308,3.2 5.25128,3.2 1.12821,0 2.05128,0.719996 2.05128,1.599996 0,0.88888 0.94815,1.6 2.13334,1.6 1.17333,0 2.13333,0.48 2.13333,1.06666 0,0.58667 0.96,1.06667 2.13333,1.06667 1.17334,0 2.13334,0.49506 2.13334,1.10014 0,0.60509 0.84,1.41823 1.86666,1.80699 1.02667,0.38875 2.55419,1.38693 3.39449,2.21814 1.31874,1.3045 1.69974,1.27618 2.78425,-0.20698 0.69104,-0.94506 2.2986,-1.71829 3.57234,-1.71829 1.27373,0 2.59217,-0.72 2.92985,-1.6 0.3377,-0.88 1.49429,-1.6 2.57024,-1.6 1.07595,0 2.25292,-0.48 2.6155,-1.06667 0.36258,-0.58666 1.77955,-1.06666 3.14883,-1.06666 1.36928,0 2.76588,-0.72 3.10358,-1.6 0.33768,-0.88 1.27529,-1.599996 2.08357,-1.599996 2.16956,0 8.59904,-3.34103 9.58369,-4.98009 0.46964,-0.78177 2.62687,-1.40812 4.8,-1.39367 3.43837,0.0228 4.18754,0.50961 5.81366,3.77717 1.67053,3.356796 1.86667,7.664576 1.86667,40.996586 0,33.33201 -0.19614,37.63979 -1.86667,40.99659 -1.02666,2.06301 -2.35999,3.76273 -2.96294,3.77717 -0.60296,0.0144 -1.88917,0.86624 -2.85827,1.89291 -2.41055,2.55375 -4.88938,4.53333 -5.67662,4.53333 -0.36,0 -1.32361,0.6 -2.14133,1.33333 -3.47495,3.11628 -4.72727,4 -5.66836,4 -0.54866,0 -1.27385,0.72 -1.61155,1.6 -0.33768,0.88 -1.07822,1.6 -1.64563,1.6 -1.10274,0 -8.7156,6.50546 -15.29097,13.06667 -2.20474,2.2 -4.48916,4 -5.07648,4 -0.58731,0 -1.06785,0.72 -1.06785,1.6 0,0.88 -0.74833,1.6 -1.66295,1.6 -0.91463,0 -1.36629,0.48 -1.00371,1.06667 0.36258,0.58666 0.0794,1.06666 -0.62929,1.06666 -1.25071,0 -8.43738,6.76909 -8.43738,7.94713 0,0.32242 -0.84,1.46512 -1.86667,2.53935 -1.02666,1.07422 -4.02666,4.47904 -6.66666,7.56627 -2.64,3.08722 -6.35771,7.36831 -8.26157,9.51353 -1.90386,2.14521 -3.46386,4.50039 -3.46667,5.23373 -0.003,0.73333 -0.46258,1.33333 -1.02172,1.33333 -0.55914,0 -1.83475,1.72407 -2.83468,3.83128 -0.99994,2.10722 -2.46246,4.07857 -3.25005,4.38079 -0.78759,0.30223 -1.43198,1.45815 -1.43198,2.56872 0,1.11056 -0.48,2.01921 -1.06667,2.01921 -0.58666,0 -1.06666,0.69278 -1.06666,1.53952 0,0.84673 -0.84,2.17258 -1.86667,2.94631 -2.27827,1.71703 -4.53333,5.58031 -4.53333,7.76636 0,0.88796 -0.47086,1.61448 -1.04635,1.61448 -0.57549,0 -1.34752,1.2 -1.71564,2.66666 -0.3681,1.46667 -1.09725,2.66667 -1.62032,2.66667 -0.52306,0 -0.95103,1.22026 -0.95103,2.71169 0,2.63061 -0.60551,3.70336 -4.53333,8.03144 -1.02667,1.13127 -1.86667,3.22854 -1.86667,4.66058 0,1.43205 -0.44307,2.87755 -0.98459,3.21224 -0.54154,0.33469 -1.29967,2.04301 -1.68476,3.79629 -0.38508,1.75327 -1.14202,3.18776 -1.68207,3.18776 -0.54004,0 -0.98191,0.98384 -0.98191,2.18631 0,1.20246 -0.75539,3.64707 -1.67866,5.43245 -0.92325,1.78539 -1.4022,3.5226 -1.06433,3.86047 0.33787,0.33787 -0.0381,1.37327 -0.83541,2.30088 -1.54353,1.79571 -3.51616,8.24846 -4.90389,16.0414 -0.46571,2.61515 -1.3877,4.93515 -2.04889,5.15555 -0.70857,0.23619 -1.20215,2.95542 -1.20215,6.62294 0,3.42222 -0.46225,6.38222 -1.02724,6.57778 -0.56498,0.19556 -1.11469,3.59915 -1.22158,7.56356 -0.10879,4.03468 -0.81562,8.02627 -1.60552,9.06666 -1.92195,2.53146 -2.14626,67.05847 -0.23532,67.69545 0.76459,0.25487 1.42123,3.88451 1.70459,9.42223 0.2535,4.95421 0.89386,9.46366 1.423,10.02099 0.52914,0.55734 0.96207,3.51734 0.96207,6.57778 0,3.09367 0.52021,5.73785 1.17157,5.95497 0.64437,0.21479 1.43374,2.77479 1.75414,5.68889 0.32042,2.9141 1.0296,5.58919 1.57598,5.94464 0.54637,0.35544 1.25888,2.62553 1.58335,5.04464 0.32447,2.4191 1.00807,4.13995 1.51912,3.82411 0.51104,-0.31585 0.96156,-0.18594 1.00116,0.28869 0.42357,5.07754 1.21741,8.39271 2.0797,8.68517 0.57657,0.19556 1.04831,1.78985 1.04831,3.54286 0,1.75301 0.69961,3.88691 1.55468,4.74198 0.85507,0.85507 1.31322,2.18389 1.01812,2.95292 -0.2951,0.76902 0.20529,2.01391 1.11199,2.7664 0.9067,0.75249 1.64854,2.17765 1.64854,3.16703 0,0.98936 0.70474,2.73059 1.56608,3.86939 0.86134,1.13879 1.58134,2.85176 1.6,3.8066 0.0187,0.95483 0.75392,2.3336 1.63392,3.06394 0.88,0.73033 1.6,2.4691 1.6,3.86393 0,1.39484 0.48,2.53607 1.06667,2.53607 0.58667,0 1.06667,0.66122 1.06667,1.46939 0,0.80816 0.72,2.06694 1.6,2.79727 0.88,0.73034 1.6,2.22911 1.6,3.33061 0,1.1015 0.42796,2.00273 0.95103,2.00273 0.52307,0 1.25221,1.2 1.62032,2.66666 0.36811,1.46667 1.14015,2.66667 1.71563,2.66667 0.57549,0 1.04635,0.68572 1.04635,1.52381 0,0.8381 0.6,2.17837 1.33333,2.97838 1.56415,1.70637 3.70782,4.9685 4.75186,7.23114 0.40606,0.88 1.843,2.7951 3.19322,4.25577 1.35021,1.46067 2.45492,3.27573 2.45492,4.03348 0,0.75774 0.72,1.654 1.6,1.99168 0.88,0.3377 1.6,1.23128 1.6,1.98574 0,0.75446 0.72,1.64804 1.6,1.98574 0.88,0.33768 1.6,1.34903 1.6,2.24745 0,0.89842 0.48,1.63348 1.06667,1.63348 0.58667,0 1.06667,0.46344 1.06667,1.02989 0,0.56644 1.32,2.42322 2.93333,4.12616 3.91808,4.13573 8.8,9.90096 8.8,10.39222 0,0.89879 9.73846,10.05173 10.69474,10.05173 0.57122,0 1.03859,0.72 1.03859,1.6 0,0.88 0.61652,1.6 1.37002,1.6 0.75351,0 2.16314,1.34263 3.13249,2.98362 0.96935,1.641 3.09442,3.681 4.72237,4.53334 1.62794,0.85234 4.64566,3.17393 6.70605,5.15909 2.06038,1.98516 5.5588,4.80895 7.77428,6.27508 2.21547,1.46613 4.02813,3.0819 4.02813,3.59062 0,0.5087 0.72,0.92492 1.6,0.92492 0.88,0 1.6,0.48 1.6,1.06666 0,0.58667 0.94311,1.06667 2.0958,1.06667 1.1527,0 2.62951,0.99723 3.28181,2.21606 0.67924,1.26919 1.8347,1.96714 2.70419,1.63347 0.88844,-0.34091 1.5182,0.0672 1.5182,0.98394 0,0.86159 0.90865,1.56653 2.01921,1.56653 1.11057,0 2.2955,0.72 2.63319,1.6 0.33769,0.88 1.34904,1.6 2.24746,1.6 0.89841,0 1.63347,0.48 1.63347,1.06667 0,0.58666 1.2,1.06666 2.66667,1.06666 1.46666,0 2.66666,0.48 2.66666,1.06667 0,0.58667 0.88561,1.06667 1.96801,1.06667 1.08241,0 2.8368,0.96 3.89866,2.13333 1.06186,1.17333 2.81625,2.13333 3.89866,2.13333 1.0824,0 1.96801,0.48 1.96801,1.06667 0,0.58667 0.90122,1.06667 2.00273,1.06667 1.10149,0 2.60026,0.72 3.3306,1.6 0.73034,0.88 2.70911,1.6 4.39727,1.6 1.68817,0 3.0694,0.48 3.0694,1.06666 0,0.58667 1.69506,1.06667 3.7668,1.06667 2.36429,0 3.99543,0.59574 4.38079,1.6 0.3377,0.88 1.79692,1.6 3.24272,1.6 1.4458,0 3.34874,0.72 4.22874,1.6 0.88,0.88 3.18693,1.6 5.12653,1.6 1.93959,0 4.12408,0.72 4.85442,1.6 0.84415,1.01714 3.20024,1.6 6.46766,1.6 2.82686,0 5.43642,0.48 5.799,1.06667 0.36258,0.58666 3.93214,1.06666 7.93234,1.06666 5.16371,0 7.65823,0.46405 8.601,1.6 1.12679,1.35771 6.21495,1.6 33.6,1.6 27.38504,0 32.4732,-0.24229 33.6,-1.6 0.95898,-1.15551 3.49654,-1.6 9.13432,-1.6 4.29354,0 8.1031,-0.48 8.46568,-1.06666 0.36258,-0.58667 3.04597,-1.06667 5.96309,-1.06667 3.39892,0 5.49718,-0.50379 5.84211,-1.40267 0.31923,-0.8319 2.58433,-1.49989 5.56653,-1.64159 2.9125,-0.13839 5.52657,-0.89465 6.21252,-1.79733 0.65135,-0.85712 2.87999,-1.55841 4.95255,-1.55841 2.3656,0 3.99683,-0.59557 4.38227,-1.6 0.35891,-0.93532 1.95724,-1.6 3.84745,-1.6 1.77842,0 3.23348,-0.48 3.23348,-1.06667 0,-0.58666 1.86122,-1.06666 4.13606,-1.06666 2.37521,0 4.70138,-0.68117 5.46394,-1.6 0.73033,-0.88 2.46911,-1.6 3.86393,-1.6 1.39484,0 2.53607,-0.48 2.53607,-1.06667 0,-0.58667 0.88656,-1.06667 1.97012,-1.06667 1.08356,0 3.07701,-0.96 4.42988,-2.13333 1.35286,-1.17333 3.34631,-2.13333 4.42987,-2.13333 1.08357,0 1.97013,-0.48 1.97013,-1.06667 0,-0.58667 1.44,-1.06667 3.2,-1.06667 1.76,0 3.2,-0.48 3.2,-1.06666 0,-0.58667 1.14865,-1.06667 2.55254,-1.06667 1.4039,0 2.82883,-0.72 3.16653,-1.6 0.33768,-0.88 1.58903,-1.6 2.78079,-1.6 1.19174,0 3.14431,-0.97751 4.33904,-2.17224 1.19474,-1.19474 2.63474,-1.88641 3.2,-1.53705 0.56527,0.34935 1.02776,-0.11313 1.02776,-1.02776 0,-0.91462 0.64625,-1.66295 1.43612,-1.66295 2.13858,0 8.16388,-3.20665 8.16388,-4.34479 0,-0.5437 0.96,-0.98854 2.13334,-0.98854 1.17333,0 2.13333,-0.48 2.13333,-1.06667 0,-0.58667 0.68572,-1.06667 1.52381,-1.06667 0.8381,0 2.18048,-0.65667 2.98308,-1.45927 0.8026,-0.80261 2.51689,-1.79495 3.80953,-2.20522 1.29264,-0.41026 2.35025,-1.19359 2.35025,-1.74072 0,-0.54713 0.96,-0.99479 2.13333,-0.99479 1.18518,0 2.13333,-0.71111 2.13333,-1.6 0,-0.88 0.72,-1.6 1.6,-1.6 0.88,0 1.6,-0.48 1.6,-1.06667 0,-0.58666 0.93615,-1.06666 2.08033,-1.06666 1.14419,0 2.46419,-0.61294 2.93334,-1.36209 1.24589,-1.98946 9.49318,-8.23791 10.87316,-8.23791 0.64892,0 1.17984,-0.48 1.17984,-1.06667 0,-0.58667 0.66865,-1.06667 1.48588,-1.06667 0.81723,0 1.76216,-0.72 2.09986,-1.6 0.33768,-0.88 1.34903,-1.6 2.24745,-1.6 0.89842,0 1.63348,-0.48 1.63348,-1.06666 0,-0.58667 0.61311,-1.06667 1.36247,-1.06667 0.74936,0 2.54936,-1.33536 4,-2.96748 1.45064,-1.6321 4.91753,-4.59348 7.70419,-6.58082 2.78667,-1.98734 5.06667,-4.01198 5.06667,-4.49919 0,-0.48721 0.48,-0.88584 1.06667,-0.88584 0.58666,0 2.92036,-1.8537 5.18599,-4.11933 2.26562,-2.26562 5.62562,-5.00912 7.46667,-6.09664 1.84103,-1.08753 3.34734,-2.59384 3.34734,-3.34735 0,-0.7535 0.72,-1.37002 1.6,-1.37002 0.88,0 1.6,-0.48 1.6,-1.06666 0,-0.58667 1.49587,-1.06667 3.32416,-1.06667 2.49735,0 4.32363,1.06124 7.3425,4.26667 2.21009,2.34666 4.55421,4.26666 5.20918,4.26666 0.65495,0 1.19082,0.72 1.19082,1.6 0,0.88 0.74833,1.6 1.66296,1.6 0.91462,0 1.36629,0.48 1.00371,1.06667 -0.36258,0.58667 -0.16817,1.06667 0.43202,1.06667 1.12929,0 7.1866,5.54294 26.51853,24.26666 6.20867,6.01334 11.4888,10.93334 11.73362,10.93334 0.24482,0 3.45948,3.12 7.14366,6.93333 3.68419,3.81334 7.2401,6.93334 7.90202,6.93334 0.66192,0 1.20348,0.72 1.20348,1.6 0,0.88 0.45401,1.6 1.0089,1.6 1.1484,0 10.26674,8.39885 26.24378,24.173 6.0385,5.96182 11.25694,10.56182 11.59654,10.22223 0.33959,-0.33961 0.61745,0.18255 0.61745,1.16032 0,0.97778 0.51129,1.77778 1.13618,1.77778 0.6249,0 3.67577,2.52 6.7797,5.6 3.10395,3.08 9.12363,8.72 13.37708,12.53333 14.35879,12.87303 14.97371,13.65204 14.97371,18.96957 0,3.75696 -0.79636,5.88412 -3.73334,9.97217 -2.05333,2.85809 -3.73333,5.67543 -3.73333,6.26073 0,0.58531 -0.48,1.0642 -1.06667,1.0642 -0.58666,0 -1.06666,0.72 -1.06666,1.6 0,0.88 -0.72,1.6 -1.6,1.6 -0.88,0 -1.6,0.69038 -1.6,1.53417 0,0.84379 -1.38238,3.04768 -3.07195,4.89751 -1.68957,1.84985 -3.72878,4.63947 -4.53159,6.19917 -0.80281,1.5597 -2.06043,3.21967 -2.79472,3.68882 -0.7343,0.46915 -1.33508,1.50915 -1.33508,2.31112 0,0.80195 -0.36,1.6181 -0.8,1.81366 -1.36415,0.60628 -10.93333,13.44195 -10.93333,14.66547 0,0.63622 -0.48,1.15675 -1.06667,1.15675 -0.58666,0 -1.06666,0.72 -1.06666,1.6 0,0.88 -0.39291,1.6 -0.87313,1.6 -0.79982,0 -10.86021,13.28598 -10.86021,14.34225 0,0.25268 -1.44,2.03601 -3.2,3.96297 -1.76,1.92695 -3.2,3.91087 -3.2,4.40869 0,2.16117 -3.37827,3.95276 -7.45343,3.95276 -2.42319,0 -4.13804,-0.43324 -3.81078,-0.96277 0.32725,-0.52951 -0.84442,-1.46454 -2.60372,-2.07784 -1.7593,-0.61329 -3.19873,-1.62005 -3.19873,-2.23724 0,-0.61718 -0.72,-1.12215 -1.6,-1.12215 -0.88,0 -1.6,-0.48 -1.6,-1.06667 0,-0.58667 -0.90865,-1.06667 -2.01921,-1.06667 -1.11057,0 -2.2955,-0.72 -2.6332,-1.6 -0.33768,-0.88 -1.27894,-1.6 -2.09169,-1.6 -0.81275,0 -2.73234,-1.16274 -4.26577,-2.58387 -1.53343,-1.42113 -3.76352,-2.89348 -4.95575,-3.27188 -1.19225,-0.3784 -2.16772,-1.13566 -2.16772,-1.6828 0,-0.54712 -0.96,-0.99478 -2.13333,-0.99478 -1.17333,0 -2.13333,-0.42797 -2.13333,-0.95103 0,-0.52307 -1.21963,-1.25714 -2.7103,-1.63127 -1.49065,-0.37414 -2.49382,-1.03049 -2.22926,-1.45856 0.26457,-0.42809 -1.45076,-1.71797 -3.81182,-2.86641 -2.36108,-1.14844 -4.52927,-2.70412 -4.8182,-3.45707 -0.28893,-0.75295 -1.43398,-1.36899 -2.54455,-1.36899 -1.11056,0 -2.01921,-0.48 -2.01921,-1.06667 0,-0.58667 -0.69615,-1.06667 -1.54699,-1.06667 -0.85085,0 -1.93085,-0.60078 -2.4,-1.33507 -0.46916,-0.73429 -2.29301,-2.0535 -4.05301,-2.93159 -1.76,-0.87809 -3.58299,-2.19579 -4.05111,-2.92823 -0.46812,-0.73242 -3.00443,-2.31264 -5.63627,-3.51158 -2.63183,-1.19894 -4.5005,-2.64046 -4.1526,-3.20337 0.34791,-0.56293 -0.35577,-1.02349 -1.56373,-1.02349 -1.20796,0 -2.19629,-0.48 -2.19629,-1.06667 0,-0.58666 -0.90865,-1.06666 -2.01921,-1.06666 -1.11057,0 -2.2955,-0.72 -2.63319,-1.6 -0.33769,-0.88 -1.58904,-1.6 -2.78079,-1.6 -1.21493,0 -2.16681,-0.70287 -2.16681,-1.6 0,-0.88889 -0.94815,-1.6 -2.13333,-1.6 -1.18518,0 -2.13333,-0.71112 -2.13333,-1.6 0,-0.88889 -0.94815,-1.6 -2.13334,-1.6 -1.17333,0 -2.13333,-0.48 -2.13333,-1.06667 0,-0.58667 -0.90865,-1.06667 -2.01921,-1.06667 -1.11057,0 -2.2955,-0.72 -2.6332,-1.6 -0.33768,-0.88 -1.58903,-1.6 -2.78078,-1.6 -1.19175,0 -2.16681,-0.60617 -2.16681,-1.34706 0,-1.27972 -2.56986,-3.05197 -6.66667,-4.59754 -1.02666,-0.38731 -1.86666,-1.12823 -1.86666,-1.64647 0,-0.51824 -0.90865,-0.94226 -2.01921,-0.94226 -1.11057,0 -2.2955,-0.72 -2.6332,-1.6 -0.33768,-0.88 -1.34903,-1.6 -2.24745,-1.6 -0.89842,0 -1.63348,-0.48 -1.63348,-1.06667 0,-1.67496 -4.23877,-1.24693 -6.10186,0.61616 -0.92556,0.92555 -2.54028,1.45859 -3.58826,1.18455 -1.04799,-0.27406 -2.16136,0.16867 -2.47418,0.98384 -0.31281,0.81516 -2.0238,1.48212 -3.80222,1.48212 -1.77842,0 -3.23348,0.48 -3.23348,1.06666 0,0.58667 -1.38122,1.06667 -3.06939,1.06667 -1.68816,0 -3.66694,0.72 -4.39727,1.6 -0.73034,0.88 -2.19483,1.6 -3.25442,1.6 -1.0596,0 -2.64653,0.72 -3.52653,1.6 -0.88,0.88 -2.84936,1.6 -4.37634,1.6 -1.52698,0 -3.05262,0.72 -3.39031,1.6 -0.34998,0.91203 -1.94084,1.6 -3.69986,1.6 -1.69723,0 -3.08588,0.48 -3.08588,1.06667 0,0.58667 -1.38122,1.06667 -3.06939,1.06667 -1.68816,0 -3.66694,0.72 -4.39727,1.6 -0.73034,0.88 -2.41034,1.6 -3.73334,1.6 -1.32299,0 -3.00299,0.72 -3.73333,1.6 -0.73034,0.88 -2.65775,1.6 -4.28316,1.6 -1.64291,0 -3.22791,0.71051 -3.56925,1.6 -0.35891,0.93531 -1.95723,1.6 -3.84745,1.6 -1.77841,0 -3.23347,0.48 -3.23347,1.06666 0,0.58667 -1.38865,1.06667 -3.08588,1.06667 -1.75902,0 -3.34988,0.68797 -3.69986,1.6 -0.35891,0.93532 -1.95724,1.6 -3.84746,1.6 -1.77841,0 -3.23347,0.48 -3.23347,1.06667 0,0.58666 -1.44,1.06666 -3.2,1.06666 h -3.2 v 6.84445 c 0,4.1232 -0.47727,7.00353 -1.20042,7.24458 -0.66022,0.22007 -1.43156,3.50007 -1.71408,7.28889 -0.28251,3.78881 -0.94233,7.04875 -1.46625,7.2443 -0.52392,0.19556 -0.95258,3.39556 -0.95258,7.11112 0,3.71555 -0.47726,6.91555 -1.06057,7.11111 -0.58332,0.19555 -1.32169,3.18065 -1.64085,6.63356 -0.31916,3.45291 -1.2819,7.27971 -2.13944,8.50401 -0.85752,1.2243 -1.55914,4.24795 -1.55914,6.71922 0,2.47127 -0.4374,5.64366 -0.972,7.04976 -0.5346,1.4061 -1.29423,5.15736 -1.68808,8.33611 -0.39384,3.17876 -1.15645,6.23556 -1.69466,6.7929 -0.53823,0.55733 -0.9786,3.34888 -0.9786,6.20345 0,2.85457 -0.45233,6.03531 -1.00517,7.06831 -0.55284,1.033 -1.25829,4.92413 -1.56766,8.64693 -0.30936,3.72282 -1.07693,7.0867 -1.70569,7.4753 -0.62878,0.38861 -1.32475,3.45025 -1.5466,6.80366 -0.22185,3.35341 -0.85692,6.67279 -1.41125,7.37639 -0.55434,0.70361 -1.2853,4.10766 -1.62437,7.56457 -0.33906,3.45691 -1.12411,6.79291 -1.74454,7.41333 -0.62042,0.62043 -1.12805,1.81914 -1.12805,2.6638 0,4.26076 -1.47966,4.3684 -60.53333,4.40367 l -56.8,0.0339 z M 418.26828,598.10728 c -6.08867,-6.30232 -15.54498,-16.0577 -21.01403,-21.67859 l -9.94373,-10.21982 2.79959,-3.11352 c 1.53977,-1.71243 34.0111,-34.3901 72.1585,-72.61704 l 69.35892,-69.50353 -25.5977,-25.96314 C 491.9511,380.73191 477.74177,366.1685 474.45355,362.6485 l -5.97859,-6.4 -26.95958,26.91883 -26.95959,26.91884 -32.53333,-32.55527 -32.53333,-32.55526 26.46418,-26.23821 26.46417,-26.23822 -2.7985,-2.92101 -2.79849,-2.921 22.13415,-22.00435 c 12.17378,-12.10239 22.48419,-22.00435 22.91202,-22.00435 0.42782,0 1.75456,1.32 2.94831,2.93333 l 2.17044,2.93333 27.03699,-26.9774 27.03697,-26.9774 32.48154,32.01754 32.48155,32.01755 -26.98095,27.01519 c -18.77101,18.79484 -26.76174,27.48522 -26.26052,28.55986 0.39623,0.84957 14.80352,15.14361 32.0162,31.76454 l 31.29578,30.21987 34.20814,-34.43461 34.20812,-34.43461 -24.04339,-24.06045 c -13.22386,-13.23323 -24.04338,-24.46689 -24.04338,-24.96366 0,-0.49677 14.71761,-15.53147 32.7058,-33.41044 l 32.70581,-32.50722 24.3361,24.31886 24.33612,24.31886 3.5422,-3.43324 c 1.94821,-1.88828 4.00385,-3.43324 4.56808,-3.43324 0.56425,0 10.61453,9.59763 22.33398,21.32808 l 21.30807,21.32807 -3.45365,3.45366 -3.45367,3.45365 12.42346,12.45591 12.42345,12.45591 -1.2743,13.69569 c -0.70086,7.53264 -1.97041,21.0157 -2.8212,29.96237 -0.85081,8.94667 -2.23494,23.58667 -3.07587,32.53333 -2.84489,30.26731 -3.88744,39.63863 -4.47443,40.22025 -0.32181,0.31887 -6.15037,-5.18025 -12.95233,-12.22025 -43.74172,-45.27247 -62.59966,-64.53333 -63.18333,-64.53333 -0.36689,0 -16.9557,16.05206 -36.86402,35.67124 l -36.19694,35.67126 72.8,72.15331 c 40.04,39.68432 72.8,72.71665 72.8,73.40518 0,1.49193 -42.74774,44.41911 -44.27619,44.46205 -0.58143,0.0163 -33.45714,-32.62127 -73.05714,-72.52802 l -72,-72.55769 -71.03318,70.66133 c -39.06826,38.86375 -71.98213,71.4978 -73.14195,72.52012 -2.04819,1.8054 -2.42664,1.52972 -13.17905,-9.6 z"
       id="path3473" />
    <path
       style="fill:#ff0000;stroke:#ffffff;stroke-width:2.63705;stroke-dasharray:none;stroke-opacity:1"
       d="m 647.8447,534.48324 -72.24169,-72.62148 -72.64425,72.1271 c -39.95434,39.66989 -73.02287,72.1217 -73.48563,72.11514 -0.46276,-0.007 -9.5928,-9.05416 -20.28899,-20.10573 l -19.4476,-20.09378 72.10023,-72.09516 c 39.65514,-39.65234 71.98872,-72.39847 71.85241,-72.76917 -0.28125,-0.76492 -13.35984,-14.30519 -44.10076,-45.65752 l -21.18707,-21.60848 -26.81245,26.79915 -26.81244,26.79914 -31.13356,-31.14532 -31.13355,-31.14533 26.15778,-26.17175 26.15778,-26.17176 -2.30494,-3.1176 -2.30493,-3.11759 20.63536,-20.68544 20.63535,-20.68544 2.73305,3.23419 2.73305,3.2342 27.13287,-27.11942 27.13287,-27.11942 31.00406,30.60078 31.00404,30.60078 -26.01583,26.37687 c -18.97449,19.23782 -26.01664,26.9987 -26.01883,28.67433 -0.003,2.27158 14.83999,17.32075 51.48357,52.19884 l 13.41293,12.76669 35.52315,-35.53344 35.52315,-35.53342 -16.31318,-16.56478 c -8.97224,-9.11063 -19.86329,-20.23951 -24.20231,-24.73086 l -7.88913,-8.16608 31.61958,-31.63116 31.61959,-31.63117 24.45879,24.44412 24.4588,24.44411 3.81734,-3.72753 3.81735,-3.72754 20.67449,20.21986 20.67451,20.21986 -3.42666,3.57727 -3.42667,3.57727 12.66693,12.69511 12.66692,12.6951 -5.08318,53.77987 c -2.79575,29.57892 -5.41442,54.83457 -5.81926,56.12366 -0.67083,2.13606 -3.87037,-0.89121 -36.09988,-34.15625 -19.4501,-20.07502 -36.2436,-37.04947 -37.31889,-37.721 -2.36967,-1.47989 -4.24957,0.22337 -47.75238,43.26522 l -29.54762,29.23454 58.22195,57.85839 c 32.02207,31.82213 64.85833,64.63038 72.96946,72.90724 l 14.74752,15.04882 -20.62857,20.77872 c -11.34571,11.4283 -20.92654,20.77872 -21.29075,20.77872 -0.3642,0 -33.17094,-32.67966 -72.90388,-72.62147 z"
       id="path5722" />
    <path
       style="fill:#ff0000;stroke:#000000;stroke-width:2.737;stroke-dasharray:none;stroke-opacity:1"
       d="m 525.7515,903.61681 c -0.30452,-1.29418 -1.23779,-4.13284 -2.07394,-6.30814 -0.83615,-2.17529 -1.53979,-5.34667 -1.56366,-7.04751 -0.0239,-1.70084 -0.71082,-3.64634 -1.52655,-4.32334 -0.84377,-0.70027 -1.48316,-2.85601 -1.48316,-5.00056 0,-2.0733 -0.49232,-5.02221 -1.09403,-6.55312 -0.60172,-1.53092 -1.47374,-5.23069 -1.93782,-8.22172 -2.095,-13.50216 -2.80659,-16.99016 -3.69189,-18.09659 -0.52123,-0.65143 -1.42723,-3.63163 -2.01333,-6.62266 -1.15356,-5.88698 -3.13976,-14.56067 -5.6605,-24.71924 -0.87713,-3.53485 -1.94728,-8.94097 -2.37811,-12.0136 -0.43081,-3.07263 -1.15331,-6.18528 -1.60554,-6.917 -0.45223,-0.73172 -1.12736,-3.33464 -1.50027,-5.78426 -1.49768,-9.83792 -3.21367,-17.41075 -4.37004,-19.2854 -0.67091,-1.08765 -1.49783,-4.16975 -1.83761,-6.84913 -0.65445,-5.16085 -2.81211,-8.47681 -5.51576,-8.47681 -0.89942,0 -2.49901,-0.66766 -3.55464,-1.4837 -2.41732,-1.86867 -10.16988,-5.43769 -11.81165,-5.43769 -0.68001,0 -1.7903,-0.66741 -2.4673,-1.48315 -0.677,-0.81574 -2.26254,-1.48315 -3.52342,-1.48315 -1.26087,0 -2.56748,-0.44495 -2.90359,-0.98877 -0.3361,-0.54383 -1.67094,-0.98877 -2.96631,-0.98877 -1.29536,0 -2.61401,-0.41875 -2.93032,-0.93054 -0.3163,-0.51179 -4.01337,-2.56078 -8.2157,-4.55331 -4.20234,-1.99253 -8.93257,-4.24347 -10.51164,-5.00209 -1.57906,-0.75861 -3.63808,-1.3793 -4.57558,-1.3793 -0.93751,0 -2.25847,-0.66742 -2.93547,-1.48316 -0.677,-0.81573 -1.84562,-1.48315 -2.59693,-1.48315 -0.75132,0 -4.59012,-1.61881 -8.53068,-3.59735 -3.94054,-1.97853 -7.93725,-3.98079 -8.88156,-4.44946 -0.94432,-0.46867 -2.61287,-0.85212 -3.70789,-0.85212 -1.09502,0 -1.99096,-0.44495 -1.99096,-0.98877 0,-0.54383 -0.80484,-0.98877 -1.78855,-0.98877 -0.98371,0 -2.65226,-0.65327 -3.70789,-1.45171 -2.83152,-2.14166 -5.84655,-1.82637 -9.15478,0.95732 -1.61575,1.35956 -3.38993,2.47193 -3.94263,2.47193 -1.00936,0 -30.19955,20.08321 -32.64562,22.46058 -0.71861,0.69845 -1.94222,1.2699 -2.71911,1.2699 -0.77689,0 -1.41253,0.44494 -1.41253,0.98877 0,0.54382 -0.39449,0.98877 -0.87663,0.98877 -1.23759,0 -11.97738,7.06278 -11.97738,7.87665 0,0.36946 -2.00226,1.67172 -4.44946,2.89392 -2.44721,1.22219 -4.44947,2.6359 -4.44947,3.14157 0,0.50567 -0.46394,0.9194 -1.03099,0.9194 -0.56704,0 -3.38571,1.73955 -6.26372,3.86565 -2.878,2.1261 -6.93875,4.78001 -9.02389,5.89759 -2.08514,1.11756 -4.04964,2.38141 -4.36556,2.80855 -0.95331,1.28893 -16.0341,11.51659 -18.86663,12.79517 -2.19719,0.9918 -9.91483,6.35894 -13.63,9.47881 -2.0767,1.74395 -4.39429,2.72533 -6.427,2.72153 -2.8235,-0.005 -4.87673,-1.80253 -18.35633,-16.06751 -8.34747,-8.83386 -18.91495,-19.91394 -23.48328,-24.62241 -4.56833,-4.70848 -8.30605,-8.81536 -8.30605,-9.12641 0,-0.58435 -13.67903,-14.17066 -14.76448,-14.6644 -1.36765,-0.62212 -17.91788,-19.88415 -17.65486,-20.54765 0.37751,-0.95233 3.60684,-5.1243 13.13832,-16.97338 4.35059,-5.40845 8.46067,-10.8586 9.13352,-12.11145 0.67284,-1.25286 3.56499,-4.98281 6.427,-8.28878 2.86201,-3.30597 7.20591,-8.73026 9.65311,-12.05397 2.44721,-3.32371 6.00678,-7.95741 7.91016,-10.29711 1.90339,-2.33969 6.7978,-8.59245 10.87647,-13.895 4.07868,-5.30256 9.98572,-12.82094 13.12676,-16.70751 7.2953,-9.02683 11.92241,-14.94738 15.56862,-19.92051 1.59489,-2.1753 3.57744,-4.65983 4.40568,-5.52119 1.90196,-1.978 1.9087,-3.61056 0.0227,-5.49654 -0.81573,-0.81573 -1.48315,-2.53748 -1.48315,-3.82609 0,-1.28863 -0.44495,-2.61794 -0.98877,-2.95404 -0.54382,-0.3361 -0.98877,-1.60822 -0.98877,-2.82691 0,-1.2187 -0.49871,-2.71452 -1.10823,-3.32405 -1.17734,-1.17734 -4.91676,-9.53788 -7.76092,-17.35176 -0.94413,-2.59385 -2.00448,-5.00397 -2.35635,-5.35584 -0.35186,-0.35186 -0.63975,-1.62347 -0.63975,-2.8258 0,-1.20234 -0.66742,-2.73997 -1.48315,-3.41697 -0.81574,-0.677 -1.48316,-1.69713 -1.48316,-2.26695 0,-1.03474 -4.83434,-12.54195 -7.49306,-17.83577 -0.77322,-1.53959 -1.40587,-3.56409 -1.40587,-4.49891 0,-0.93481 -0.38508,-2.12235 -0.85576,-2.63898 -0.47066,-0.51664 -2.06577,-4.16229 -3.54467,-8.10146 -1.4789,-3.93917 -3.09607,-7.41377 -3.5937,-7.72132 -0.49764,-0.30756 -0.9048,-1.41686 -0.9048,-2.46512 0,-2.98723 -6.37678,-5.34004 -20.93127,-7.72292 -2.5391,-0.41571 -5.29683,-1.3204 -6.12826,-2.01044 -1.48939,-1.23608 -8.52606,-2.72589 -17.63795,-3.73432 -2.55877,-0.28319 -5.17169,-1.14071 -5.8065,-1.9056 -0.6348,-0.76489 -2.44884,-1.39072 -4.03119,-1.39072 -1.58235,0 -4.31617,-0.60133 -6.07517,-1.33628 -1.75899,-0.73495 -5.30427,-1.6521 -7.8784,-2.03812 -2.57412,-0.38602 -4.68023,-1.05375 -4.68023,-1.48387 0,-0.70044 -7.26582,-2.33235 -16.80909,-3.7753 -1.90338,-0.2878 -4.33835,-1.13265 -5.41105,-1.87746 -1.07269,-0.74482 -3.76462,-1.3542 -5.98205,-1.3542 -2.21744,0 -4.47274,-0.44104 -5.01177,-0.98006 -0.53904,-0.53904 -2.96399,-1.38631 -5.3888,-1.88281 -2.4248,-0.49651 -5.74357,-1.36414 -7.37504,-1.92806 -1.63147,-0.56392 -6.52588,-1.78921 -10.87647,-2.72286 -4.35059,-0.93365 -9.57624,-2.40591 -11.612568,-3.27169 l -3.702412,-1.57415 0.241717,-55.21171 0.241717,-55.21173 2.334272,-1.88973 c 1.28385,-1.03937 3.813324,-1.88975 5.621054,-1.88975 1.80774,0 4.53936,-0.52307 6.07028,-1.16238 2.66629,-1.11343 5.09514,-1.45387 25.80015,-3.61614 5.04564,-0.52693 9.73089,-1.42033 10.41167,-1.98532 0.68078,-0.56499 7.89866,-1.75146 16.03974,-2.63658 8.14108,-0.88513 16.1368,-2.27787 17.76827,-3.09498 3.08575,-1.54548 10.46922,-2.74537 25.85079,-4.20102 4.97294,-0.47061 9.46819,-1.11925 9.98945,-1.4414 0.52127,-0.32216 4.23907,-1.09127 8.26178,-1.70914 8.80305,-1.35212 13.74102,-3.2516 13.74102,-5.28577 0,-1.33087 2.16955,-6.34882 5.11741,-11.83608 0.55178,-1.02712 1.67376,-4.14174 2.49327,-6.92139 0.81952,-2.77965 1.96862,-5.6397 2.55358,-6.35566 0.58496,-0.71597 1.8927,-3.8306 2.9061,-6.92139 1.77251,-5.40602 3.52001,-9.5724 6.3608,-15.16551 0.73315,-1.44346 1.33301,-3.28001 1.33301,-4.08121 0,-0.80119 0.66742,-2.01062 1.48316,-2.68762 0.81573,-0.677 1.48315,-2.51127 1.48315,-4.07615 0,-1.56488 0.44495,-2.84524 0.98877,-2.84524 0.54382,0 0.98877,-0.71141 0.98877,-1.58091 0,-1.63958 1.13999,-4.46507 6.06479,-15.03167 1.59712,-3.42677 3.16811,-7.55179 3.49109,-9.1667 0.32298,-1.61491 0.97472,-3.17567 1.4483,-3.46837 0.47358,-0.29268 0.85364,-1.28456 0.84458,-2.20415 -0.018,-1.82768 -7.85354,-15.55136 -10.31685,-18.06964 -0.84255,-0.86136 -1.53191,-2.27036 -1.53191,-3.1311 0,-0.86075 -0.33371,-1.71332 -0.74158,-1.8946 -0.40786,-0.18127 -1.52961,-1.8869 -2.49279,-3.79028 -0.96316,-1.90339 -2.83268,-5.24048 -4.1545,-7.41578 -1.32181,-2.17529 -2.97778,-5.06744 -3.67992,-6.427 -0.70216,-1.35956 -2.05849,-3.33448 -3.01409,-4.38872 -0.95559,-1.05423 -1.73744,-2.46853 -1.73744,-3.14287 0,-0.67435 -0.55618,-1.82993 -1.23596,-2.56796 -0.67978,-0.73803 -1.97421,-2.66083 -2.87651,-4.2729 -0.9023,-1.61207 -4.38303,-7.82544 -7.73495,-13.80749 -3.35193,-5.98206 -6.69993,-11.3489 -7.44003,-11.92632 -0.74008,-0.57741 -1.64583,-2.24596 -2.01274,-3.70789 -0.36692,-1.46191 -1.06384,-2.65804 -1.54871,-2.65804 -0.48486,0 -0.88158,-0.57704 -0.88158,-1.28232 0,-0.70528 -2.00225,-4.33083 -4.44946,-8.05677 -2.44721,-3.72594 -4.44946,-7.08665 -4.44946,-7.46825 0,-0.38159 -1.33484,-2.5365 -2.96631,-4.78868 -1.63147,-2.25218 -2.96631,-4.76614 -2.96631,-5.58659 0,-0.82044 -0.39672,-1.49171 -0.88158,-1.49171 -0.48487,0 -1.16077,-1.11237 -1.50199,-2.47193 -0.34124,-1.35956 -1.05689,-2.47192 -1.59035,-2.47192 -0.53346,0 -0.96993,-1.05844 -0.96993,-2.35208 0,-2.37259 0.64406,-2.97834 22.73082,-21.3784 4.24311,-3.534852 11.2907,-9.430393 15.66132,-13.101201 4.37063,-3.670808 8.24358,-6.674197 8.60658,-6.674197 0.36299,0 2.17777,-1.446076 4.03283,-3.213502 1.85506,-1.767426 5.86758,-5.215761 8.9167,-7.662967 3.04913,-2.447205 7.60487,-6.278331 10.12387,-8.513614 6.07796,-5.39339 8.04809,-6.317934 13.46303,-6.317934 4.60434,0 8.82509,1.633901 13.3643,5.173477 1.35955,1.060154 3.918,2.531849 5.68542,3.270434 1.76743,0.738584 3.2135,1.810532 3.2135,2.382104 0,0.571573 0.50399,1.039224 1.11998,1.039224 0.61599,0 5.07767,2.669678 9.91486,5.932619 4.83718,3.262941 9.02846,5.932619 9.31397,5.932619 0.2855,0 4.23514,2.447206 8.77697,5.438235 4.54183,2.991029 8.69788,5.438234 9.23566,5.438234 0.53778,0 1.23389,0.66742 1.54693,1.483155 0.31302,0.815735 1.18934,1.483155 1.94736,1.483155 0.75802,0 3.0579,1.334839 5.11084,2.966309 2.05295,1.631471 4.1636,2.96631 4.69033,2.96631 0.52675,0 2.57906,1.23721 4.5607,2.749355 1.98164,1.512145 4.93782,3.389561 6.56929,4.172034 1.63147,0.782473 4.58766,2.659889 6.56929,4.172035 1.98164,1.512144 4.04066,2.749356 4.57559,2.749356 0.53494,0 1.53333,0.67563 2.21866,1.5014 0.68533,0.82577 2.85331,2.25729 4.81773,3.18115 1.96441,0.92386 4.35784,2.40179 5.31871,3.28429 4.19558,3.85341 6.38602,4.34798 10.35479,2.33798 2.04517,-1.03578 4.38591,-2.39686 5.20164,-3.02461 0.81574,-0.62775 3.63678,-1.86353 6.26898,-2.74618 2.63221,-0.88264 5.4449,-2.26388 6.25044,-3.06942 0.80554,-0.80554 2.01314,-1.46461 2.68356,-1.46461 0.67042,0 3.37388,-1.366621 6.00769,-3.036934 6.11528,-3.878198 8.93732,-3.386473 10.38011,1.808678 1.51878,5.468796 1.30491,74.079946 -0.24193,77.611896 -1.14024,2.60356 -6.3871,7.30787 -14.05947,12.60565 -6.55556,4.52663 -16.08261,12.45802 -26.24775,21.85162 -10.72924,9.91488 -35.53627,37.91665 -35.53627,40.11277 0,0.72428 -0.401,1.31688 -0.8911,1.31688 -0.49011,0 -1.87095,1.66855 -3.06853,3.70789 -1.19759,2.03934 -2.79885,4.0637 -3.55836,4.49859 -0.75952,0.4349 -1.38094,1.6585 -1.38094,2.71912 0,1.06063 -0.44495,1.92841 -0.98877,1.92841 -0.54382,0 -0.98877,0.59846 -0.98877,1.32991 0,0.73145 -0.85839,2.10674 -1.90754,3.0562 -1.04914,0.94946 -2.6759,3.3544 -3.61502,5.34429 -0.93912,1.98989 -2.75041,5.2777 -4.02508,7.30623 -1.27468,2.02853 -2.3176,4.55283 -2.3176,5.60956 0,1.05673 -1.08727,3.21347 -2.41616,4.79277 -1.32888,1.57929 -3.50914,5.77525 -4.84503,9.32435 -1.33588,3.54911 -2.86409,7.29675 -3.39603,8.32809 -1.27403,2.47011 -4.93409,13.11145 -7.2766,21.15618 -1.02931,3.53485 -2.58342,8.42927 -3.45358,10.87647 -1.51585,4.26311 -2.03518,7.15819 -4.25688,23.73048 -0.54679,4.07867 -1.44162,9.19556 -1.98852,11.37085 -1.29582,5.1542 -1.36027,62.93473 -0.0736,65.95387 0.53238,1.24919 1.45795,6.27577 2.05681,11.17018 2.14412,17.52372 2.65448,20.80521 3.69071,23.73048 0.57793,1.63147 2.04029,6.30341 3.24968,10.38208 1.2094,4.07868 2.53679,7.86073 2.94977,8.40455 0.41298,0.54382 1.0636,2.66223 1.44583,4.70758 0.38222,2.04534 1.08946,3.96263 1.57163,4.26062 0.48217,0.29801 0.87668,1.76536 0.87668,3.2608 0,1.49543 0.65327,3.58266 1.45171,4.6383 0.79844,1.05563 1.46586,2.54381 1.48316,3.30707 0.0173,0.76327 1.18902,3.87789 2.60384,6.92139 4.05709,8.72745 6.12316,13.32408 6.70928,14.92696 0.2983,0.81573 1.88925,3.70789 3.53544,6.427 1.64619,2.71912 3.48383,6.16746 4.08364,7.66297 0.59981,1.49551 1.49197,2.71912 1.9826,2.71912 0.49062,0 0.89204,0.50598 0.89204,1.1244 0,1.04158 4.36652,7.85077 11.96029,18.65099 7.52986,10.70934 16.78224,21.78765 26.99081,32.31734 10.04457,10.36054 13.57402,13.50291 28.71203,25.56318 6.40067,5.09932 14.23117,10.34461 15.44311,10.34461 0.51656,0 0.9392,0.43647 0.9392,0.96993 0,0.53346 1.08017,1.24104 2.40038,1.57239 1.32021,0.33135 2.64108,1.22972 2.93528,1.99638 0.29419,0.76665 1.21628,1.39392 2.04909,1.39392 0.8328,0 1.51418,0.44494 1.51418,0.98877 0,0.54382 0.85313,0.98877 1.89584,0.98877 1.04271,0 5.28252,2.00225 9.42179,4.44946 4.13928,2.44721 8.06932,4.46361 8.73344,4.48091 0.66411,0.0173 2.07118,0.68472 3.12681,1.48315 1.05563,0.79844 2.92039,1.45171 4.14392,1.45171 1.22352,0 2.49958,0.44495 2.83568,0.98877 0.3361,0.54383 1.49781,0.98877 2.58158,0.98877 1.08376,0 3.61595,0.84682 5.62707,1.88182 6.15155,3.16582 11.04027,5.03957 13.14845,5.03957 1.10495,0 2.98088,0.53067 4.16873,1.17926 2.3833,1.30133 8.20628,2.38103 19.4632,3.60887 4.07868,0.44488 8.46101,1.3686 9.73852,2.0527 3.33851,1.78776 65.20156,1.78174 68.52348,-0.007 1.27751,-0.68777 5.88232,-1.62596 10.23291,-2.08486 15.45641,-1.63036 17.82045,-2.03552 19.74821,-3.3845 1.07269,-0.75065 3.29742,-1.36754 4.94385,-1.37089 1.64642,-0.003 4.26796,-0.67078 5.82564,-1.48316 1.55767,-0.81238 3.78241,-1.48 4.94385,-1.48358 1.16143,-0.004 3.44654,-0.89054 5.07801,-1.97102 1.63147,-1.08048 3.94118,-1.96745 5.13269,-1.97103 1.1915,-0.004 2.44137,-0.45146 2.77747,-0.99528 0.3361,-0.54383 1.88362,-0.98877 3.43892,-0.98877 1.55531,0 4.08749,-0.62475 5.62707,-1.38832 12.05673,-5.97944 21.88013,-10.47666 22.88503,-10.47666 1.08109,0 2.36358,-0.55457 7.1054,-3.07246 0.81574,-0.43315 4.0416,-2.03183 7.16858,-3.55262 3.12699,-1.5208 5.68543,-3.07868 5.68543,-3.46197 0,-0.38329 1.89102,-1.59652 4.20227,-2.69607 2.31125,-1.09955 4.86969,-2.45187 5.68543,-3.00515 2.45735,-1.66671 16.83481,-9.91975 17.28101,-9.91975 0.22822,0 1.61522,-1.11237 3.08221,-2.47193 1.46699,-1.35955 3.09972,-2.47192 3.6283,-2.47192 0.52858,0 2.35749,-1.22609 4.06426,-2.72466 1.70678,-1.49856 7.54981,-5.80689 12.98455,-9.57406 5.43472,-3.76716 12.99594,-9.59523 16.80271,-12.95126 17.96187,-15.83515 27.61399,-23.28907 29.78204,-22.99943 2.17228,0.2902 11.71306,8.69576 34.00308,29.95717 6.27147,5.98205 18.03953,17.10572 26.15126,24.71924 8.11173,7.61353 20.33846,19.17032 27.17054,25.68176 17.02693,16.22785 21.89544,20.81878 39.89128,37.61691 16.29512,15.21058 17.51968,16.64364 17.51968,20.50254 0,2.69593 -6.09196,13.1934 -10.13489,17.46411 -1.49551,1.57976 -2.71912,3.15739 -2.71912,3.50582 0,0.34843 -2.66968,4.18353 -5.93262,8.52245 -3.26294,4.33891 -5.93262,8.09159 -5.93262,8.33928 0,0.2477 -2.33596,3.56263 -5.19104,7.36652 -2.85507,3.8039 -8.30566,11.16214 -12.11243,16.35164 -3.80676,5.18951 -8.58994,11.60276 -10.62927,14.25167 -2.03934,2.64892 -3.70789,5.27419 -3.70789,5.83394 0,0.55975 -1.5375,1.52515 -3.41667,2.14533 -3.62407,1.19605 -5.67859,0.24198 -12.21181,-5.6709 -1.35198,-1.2236 -3.28307,-2.22473 -4.2913,-2.22473 -1.00824,0 -1.83316,-0.43897 -1.83316,-0.9755 0,-0.53653 -1.44608,-1.65053 -3.2135,-2.47557 -1.76743,-0.82504 -4.99329,-2.83846 -7.16858,-4.47428 -2.1753,-1.63582 -5.73487,-3.87972 -7.91016,-4.98646 -3.81648,-1.94173 -9.0596,-5.41921 -12.56047,-8.33069 -0.92622,-0.77028 -2.98956,-2.07562 -4.58522,-2.90077 -4.4266,-2.28908 -19.18464,-12.03971 -21.41634,-14.14974 -1.08764,-1.02836 -3.53485,-2.65443 -5.43823,-3.61348 -5.44821,-2.74518 -7.24153,-3.86102 -11.41913,-7.10522 -2.14874,-1.66865 -5.46412,-3.79445 -7.3675,-4.72399 -5.02673,-2.45489 -7.31096,-3.94339 -8.21038,-5.35025 -0.43703,-0.68361 -2.43928,-2.14223 -4.44946,-3.24138 -2.01017,-1.09914 -4.9897,-2.88099 -6.62117,-3.95964 -1.63147,-1.07865 -3.74497,-2.23037 -4.69666,-2.55938 -0.95169,-0.329 -1.73035,-0.99124 -1.73035,-1.47163 0,-1.35832 -5.46122,-1.02813 -8.5716,0.51824 -3.90469,1.94127 -7.02676,3.12076 -12.19256,4.60623 -2.44721,0.7037 -7.50166,2.75669 -11.23213,4.56216 -3.73046,1.80548 -7.56927,3.2827 -8.53067,3.2827 -0.9614,0 -2.30191,0.66742 -2.97891,1.48315 -0.677,0.81574 -2.26254,1.48316 -3.52341,1.48316 -1.26087,0 -2.56749,0.44494 -2.9036,0.98877 -0.3361,0.54382 -1.46102,0.98877 -2.49982,0.98877 -1.72523,0 -6.12457,1.87223 -12.97867,5.52334 -1.44346,0.76893 -3.50248,1.39805 -4.57559,1.39805 -1.0731,0 -2.50501,0.66742 -3.18201,1.48315 -0.677,0.81574 -2.26253,1.48316 -3.52341,1.48316 -1.26087,0 -2.56749,0.44494 -2.90359,0.98877 -0.33611,0.54382 -1.66542,0.98877 -2.95404,0.98877 -1.28862,0 -2.93873,0.59578 -3.66689,1.32395 -1.402,1.40199 -4.88472,2.46136 -10.85501,3.30187 l -3.63314,0.51148 -0.43728,7.07186 c -0.2405,3.88951 -0.91612,8.85163 -1.50138,11.02693 -1.87928,6.98481 -3.43928,14.65681 -4.22018,20.75458 -0.70729,5.52297 -2.31463,13.21228 -4.75582,22.75129 -1.52508,5.95926 -7.05194,35.74424 -9.05732,48.81096 -0.53125,3.46163 -1.24337,6.74278 -1.58248,7.29146 -0.33909,0.54869 -1.21186,4.16817 -1.93947,8.04331 -1.22683,6.53399 -3.33779,16.28396 -4.87775,22.52917 -0.36163,1.46657 -1.58888,2.9242 -2.77498,3.29589 -1.16964,0.36655 -26.64699,0.90958 -56.61634,1.20676 l -54.48975,0.54031 z"
       id="path5724" />
    <path
       style="fill:#000000;stroke:#ffffff;stroke-width:7.806;stroke-dasharray:none;stroke-opacity:1;fill-opacity:1"
       d="m 647.95504,531.77626 -72.36215,-72.36215 -70.04385,69.14864 c -38.52413,38.03176 -71.52543,70.48349 -73.33623,72.11496 l -3.29237,2.96631 -18.15063,-18.78663 -18.15064,-18.78663 58.12066,-58.33742 c 66.28562,-66.53286 84.18468,-85.06106 84.18468,-87.14376 0,-1.71869 -64.91924,-68.5875 -66.58783,-68.5875 -0.62118,0 -12.92644,11.79095 -27.34503,26.20213 l -26.21561,26.20211 -29.65004,-29.6624 -29.65005,-29.66241 25.99571,-26.0096 25.99571,-26.00961 -2.02463,-2.57389 c -1.11354,-1.41565 -2.02463,-2.95295 -2.02463,-3.41622 0,-0.46328 8.61138,-9.44521 19.1364,-19.95985 l 19.1364,-19.11752 2.59767,3.30671 2.59766,3.30672 27.14098,-27.1154 27.14098,-27.1154 29.71271,28.96369 29.71269,28.96369 -23.06694,23.59056 c -12.6868,12.97481 -24.31545,25.39218 -25.84142,27.59416 -2.55599,3.6883 -2.66512,4.20875 -1.38566,6.60844 1.43922,2.69933 61.72092,62.19621 64.71341,63.87089 1.40174,0.78445 7.98258,-5.34414 38.39232,-35.75387 l 36.70061,-36.7006 -20.78206,-21.01485 c -11.43012,-11.55816 -22.31548,-22.69417 -24.1897,-24.74668 l -3.40765,-3.73184 30.12079,-30.13293 30.12079,-30.13294 24.45894,24.44426 24.45894,24.44426 3.99678,-3.90275 3.99679,-3.90276 18.98329,18.98329 18.9833,18.9833 -3.39831,3.50617 -3.39832,3.50617 13.2076,13.23483 13.20758,13.23483 -4.65714,48.29602 c -2.56143,26.56281 -4.96047,50.67189 -5.3312,53.57575 l -0.67406,5.27973 -35.43954,-36.17879 c -20.88317,-21.31877 -36.17793,-36.17879 -37.23727,-36.17879 -2.99836,0 -9.93335,6.29583 -45.36141,41.18062 l -33.99278,33.47151 54.73548,54.38234 c 30.1045,29.91029 62.94938,62.74809 72.98862,72.97289 l 18.25314,18.59054 -19.21093,19.22991 c -10.56602,10.57644 -19.43807,19.2299 -19.71568,19.2299 -0.2776,0 -33.0677,-32.56296 -72.86687,-72.36214 z"
       id="path7106" />
    <path
       style="fill:#000000;stroke:#ffffff;stroke-width:7.806;stroke-dasharray:none;stroke-opacity:1;fill-opacity:1"
       d="m 527.55497,902.65812 c -2.45308,-6.73784 -3.50693,-10.34346 -3.50693,-11.99853 0,-1.07304 -0.60427,-3.35307 -1.34282,-5.06672 -1.39469,-3.23611 -2.34785,-7.53321 -5.73392,-25.85006 -1.1051,-5.97798 -2.36783,-11.53981 -2.80606,-12.35962 -0.43824,-0.8198 -2.39149,-8.38722 -4.34058,-16.81648 -3.36879,-14.56916 -4.68762,-20.67645 -9.9429,-46.04373 -1.2468,-6.01831 -2.7126,-11.80262 -3.25733,-12.854 -0.54473,-1.05139 -1.30961,-3.67603 -1.69973,-5.83253 -0.99214,-5.48447 -3.09698,-9.16438 -5.71757,-9.99613 -1.22825,-0.38983 -6.23878,-2.67215 -11.13451,-5.07181 -4.89571,-2.39966 -11.43515,-5.20049 -14.53207,-6.22406 -3.09691,-1.02357 -6.65648,-2.51787 -7.91016,-3.32065 -1.25367,-0.80278 -6.50639,-3.32068 -11.67271,-5.59534 -15.95719,-7.0257 -23.11319,-10.2164 -40.04518,-17.85526 -8.13694,-3.67099 -9.3631,-3.32219 -25.45809,7.24191 -7.99512,5.24767 -17.10639,11.45468 -20.24726,13.79334 -6.37396,4.74599 -7.25025,5.3193 -12.8139,8.38343 -2.15086,1.18457 -5.71929,3.63178 -7.92983,5.43823 -2.21055,1.80646 -5.29426,4.04493 -6.85269,4.97438 -1.55843,0.92945 -7.33802,4.71149 -12.84353,8.40454 -5.50552,3.69306 -14.8494,9.92867 -20.76417,13.85694 -5.91478,3.92825 -14.27622,9.60132 -18.58096,12.60681 -4.30476,3.00549 -8.72452,5.46452 -9.82171,5.46452 -2.09843,0 -7.15208,-4.99182 -34.53511,-34.11256 -8.69333,-9.245 -19.67425,-20.6359 -24.40206,-25.31309 -9.51075,-9.40894 -20.80814,-22.20677 -20.80814,-23.57172 0,-0.81712 5.27388,-7.72921 29.09064,-38.12694 61.37378,-78.3324 61.87619,-78.98895 61.87619,-80.86108 0,-0.87147 -0.4038,-1.83406 -0.89732,-2.13907 -0.49353,-0.30502 -1.67369,-3.1122 -2.62258,-6.23817 -0.9489,-3.12598 -2.50151,-7.01843 -3.45026,-8.6499 -2.20597,-3.79344 -9.83893,-22.48709 -9.83893,-24.09625 0,-0.67099 -0.89083,-2.86545 -1.97963,-4.87657 -2.62683,-4.85204 -9.88561,-21.47023 -9.88561,-22.63204 0,-2.68305 -10.05007,-23.77374 -12.03878,-25.2641 -1.26411,-0.94735 -6.97032,-2.79814 -12.68047,-4.11286 -5.71014,-1.31472 -12.1685,-3.05983 -14.3519,-3.87803 -2.18341,-0.81819 -7.48391,-1.97637 -11.7789,-2.57376 -4.29498,-0.59737 -8.337,-1.52429 -8.98226,-2.0598 -0.64525,-0.53551 -3.35379,-1.41643 -6.01896,-1.95758 -2.66518,-0.54116 -7.9604,-1.91726 -11.76716,-3.058 -3.80677,-1.14074 -11.37086,-3.05131 -16.80909,-4.2457 -5.43824,-1.19439 -10.44509,-2.51619 -11.12634,-2.93732 -0.68125,-0.42112 -3.35093,-1.1523 -5.93262,-1.62482 -6.12048,-1.12022 -37.65911,-9.55285 -40.536889,-10.83853 l -2.224732,-0.99393 v -53.7881 c 0,-45.85822 0.212032,-53.96405 1.438205,-54.98168 2.082496,-1.72832 11.716236,-3.67969 29.402836,-5.95572 8.53331,-1.09812 16.5501,-2.39009 17.81509,-2.87103 1.26498,-0.48094 8.07652,-1.62701 15.13675,-2.54682 7.06023,-0.9198 15.95141,-2.51472 19.75817,-3.54424 3.80677,-1.02954 12.7057,-2.55186 19.7754,-3.38293 13.30998,-1.56465 29.70228,-4.59107 34.2668,-6.3265 1.44099,-0.54785 2.9906,-1.57973 3.44358,-2.29306 1.31947,-2.07782 5.59462,-12.26743 13.19702,-31.45443 2.13459,-5.38729 6.42772,-15.42741 10.0182,-23.42904 1.02371,-2.28141 1.86129,-4.62342 1.86129,-5.20445 0,-0.58104 0.39793,-1.82906 0.88429,-2.77338 1.18311,-2.29714 7.27496,-16.92049 10.47019,-25.13347 3.01339,-7.7456 2.76453,-8.79798 -4.87237,-20.60342 -2.47751,-3.82984 -4.52992,-7.28318 -4.56091,-7.67409 -0.031,-0.39091 -3.11257,-5.82763 -6.84796,-12.0816 -3.7354,-6.25397 -10.90413,-18.49 -15.93051,-27.19117 -5.02638,-8.70118 -10.39878,-17.57653 -11.93866,-19.723 -1.53989,-2.14647 -2.79979,-4.24834 -2.79979,-4.67082 0,-0.42248 -3.40675,-6.45284 -7.57056,-13.4008 -4.16381,-6.94795 -8.68448,-14.63491 -10.04593,-17.08211 -1.36145,-2.44721 -2.96034,-5.26334 -3.5531,-6.25806 -0.8912,-1.49557 -0.55099,-2.26567 1.96564,-4.44947 7.6718,-6.6572 39.00636,-32.795556 43.51898,-36.302259 2.76872,-2.151525 10.44844,-8.465191 17.06606,-14.03037 6.61762,-5.565178 13.16688,-10.403334 14.55391,-10.751456 4.43641,-1.113466 10.26317,0.328648 15.55109,3.848866 12.74656,8.485503 46.07952,29.38072 46.86941,29.38072 0.34397,0 1.33013,0.690137 2.19148,1.533637 1.3106,1.283423 16.63929,11.039758 40.15294,25.556352 2.73275,1.68712 6.24109,4.06862 7.79631,5.29222 4.69559,3.69438 7.8297,2.94097 26.28227,-6.31798 13.47218,-6.759953 17.20128,-8.257731 17.86914,-7.177099 1.71014,2.767059 2.07386,12.025599 1.7512,44.577549 l -0.33016,33.30719 -2.9663,3.13582 c -1.63148,1.72469 -8.25046,7.17701 -14.70886,12.11624 -19.75648,15.10931 -44.88154,40.64855 -59.14264,60.1176 -3.33052,4.54677 -6.65293,8.8643 -7.38314,9.5945 -0.73021,0.73021 -1.32765,1.74585 -1.32765,2.25698 0,0.51113 -1.71562,3.48274 -3.8125,6.60357 -8.60924,12.81334 -19.02736,35.6581 -26.26091,57.58466 -6.54907,19.85177 -9.21549,33.02521 -11.60786,57.34866 -1.41476,14.38407 -0.52418,55.41769 1.45929,67.23635 0.86703,5.16632 2.25447,13.6203 3.0832,18.78663 1.83967,11.46861 12.41181,43.96862 19.49851,59.94073 16.37261,36.90083 45.55801,74.99571 76.47208,99.81683 9.50583,7.63231 13.57313,10.57698 23.23609,16.82268 2.44721,1.58176 4.67194,3.13316 4.94385,3.44756 1.68568,1.94908 28.72602,14.86355 35.86621,17.12972 3.93053,1.24748 8.50794,2.97221 10.17202,3.83275 4.97851,2.57448 20.01421,6.51521 31.08582,8.14733 5.71015,0.84176 12.60682,1.93537 15.32593,2.43026 6.45864,1.17547 56.88991,1.16652 63.28128,-0.0113 2.71911,-0.50106 9.83826,-1.59336 15.82032,-2.42734 14.73714,-2.05456 17.23516,-2.5547 17.86713,-3.57723 0.298,-0.48218 1.56605,-0.87669 2.8179,-0.87669 2.31925,0 12.53762,-3.13303 22.31249,-6.8412 2.98336,-1.13174 6.07593,-2.05773 6.87238,-2.05773 2.5221,0 42.47527,-18.26434 48.5127,-22.17728 1.90338,-1.23361 8.3551,-5.07375 14.33716,-8.53364 19.44762,-11.24808 39.9318,-26.0435 62.78689,-45.35005 7.88544,-6.66113 15.51015,-12.7252 16.94381,-13.47572 2.5072,-1.31254 2.88436,-1.12676 9.8877,4.87037 4.00457,3.42922 24.87853,22.88087 46.38655,43.2259 21.50803,20.34503 50.09723,47.37525 63.53154,60.06717 14.39207,13.59673 24.67358,24.06249 25.02865,25.47718 0.98464,3.92316 -2.80201,9.65441 -38.97533,58.99066 -8.86559,12.09164 -17.00761,22.74116 -18.09338,23.66558 -2.37641,2.02331 -4.04122,1.52617 -9.46406,-2.8261 -2.26923,-1.82124 -4.94175,-3.64344 -5.93892,-4.04933 -2.61974,-1.06632 -26.50767,-16.37739 -49.10777,-31.47581 -6.44139,-4.3033 -14.18201,-9.28028 -17.20137,-11.05997 -3.01934,-1.77969 -7.53793,-4.7272 -10.0413,-6.55004 -2.50337,-1.82283 -6.36112,-4.22749 -8.5728,-5.34367 -2.21167,-1.1162 -4.5854,-2.70922 -5.27494,-3.54008 -0.68955,-0.83085 -4.88678,-3.60834 -9.32718,-6.17221 -4.4404,-2.56388 -8.84003,-5.31174 -9.77695,-6.10637 -1.1271,-0.95591 -2.74853,-1.23579 -4.79189,-0.82712 -4.53292,0.90659 -26.60247,9.17681 -39.97679,14.98067 -1.63147,0.70799 -5.85846,2.39517 -9.39331,3.7493 -8.05057,3.08401 -16.40575,6.44724 -20.26978,8.15923 -1.63147,0.72284 -5.18014,2.03546 -7.88592,2.91694 -2.70579,0.88147 -5.44577,2.03935 -6.08884,2.57306 -0.64309,0.53371 -4.21357,1.53013 -7.93441,2.21427 l -6.76516,1.24388 -0.26207,4.89035 c -0.28966,5.40509 -4.46402,28.00132 -9.67123,52.35131 -1.86073,8.70118 -4.96447,24.71925 -6.89719,35.59572 -1.93271,10.87647 -4.35463,23.33497 -5.38202,27.68556 -1.02739,4.35058 -2.84674,12.68564 -4.04299,18.52234 -1.19626,5.8367 -2.74861,11.08823 -3.44967,11.67006 -0.8507,0.70601 -19.21595,1.25769 -55.21608,1.65864 -45.91153,0.51134 -54.01699,0.39321 -54.44907,-0.79358 z"
       id="path7108" />
  </g>
</svg>
