<?xml version="1.0" encoding="UTF-8" standalone="no"?>
<!-- Created with Inkscape (http://www.inkscape.org/) -->

<svg
   version="1.1"
   id="svg555"
   width="1052.8"
   height="1015.4667"
   viewBox="0 0 1052.8 1015.4667"
   sodipodi:docname="RSI.svg"
   inkscape:version="1.2.2 (732a01da63, 2022-12-09)"
   xmlns:inkscape="http://www.inkscape.org/namespaces/inkscape"
   xmlns:sodipodi="http://sodipodi.sourceforge.net/DTD/sodipodi-0.dtd"
   xmlns="http://www.w3.org/2000/svg"
   xmlns:svg="http://www.w3.org/2000/svg">
  <defs
     id="defs559" />
  <sodipodi:namedview
     id="namedview557"
     pagecolor="#ffffff"
     bordercolor="#000000"
     borderopacity="0.25"
     inkscape:showpageshadow="2"
     inkscape:pageopacity="0.0"
     inkscape:pagecheckerboard="0"
     inkscape:deskcolor="#d1d1d1"
     showgrid="false"
     showguides="true"
     inkscape:zoom="1.0113577"
     inkscape:cx="571.50897"
     inkscape:cy="424.18227"
     inkscape:window-width="1649"
     inkscape:window-height="1259"
     inkscape:window-x="2028"
     inkscape:window-y="80"
     inkscape:window-maximized="0"
     inkscape:current-layer="g561" />
  <g
     inkscape:groupmode="layer"
     inkscape:label="Image"
     id="g561"
     style="display:inline">
    <path
       style="display:inline;fill:#ff0000;stroke:#ffffff;stroke-width:5.106;stroke-dasharray:none;stroke-opacity:1"
       d="m 647.95504,531.77626 -72.36215,-72.36215 -70.04385,69.14864 c -38.52413,38.03176 -71.52543,70.48349 -73.33623,72.11496 l -3.29237,2.96631 -18.15063,-18.78663 -18.15064,-18.78663 58.12066,-58.33742 c 66.28562,-66.53286 84.18468,-85.06106 84.18468,-87.14376 0,-1.71869 -64.91924,-68.5875 -66.58783,-68.5875 -0.62118,0 -12.92644,11.79095 -27.34503,26.20213 l -26.21561,26.20211 -29.65004,-29.6624 -29.65005,-29.66241 25.99571,-26.0096 25.99571,-26.00961 -2.02463,-2.57389 c -1.11354,-1.41565 -2.02463,-2.95295 -2.02463,-3.41622 0,-0.46328 8.61138,-9.44521 19.1364,-19.95985 l 19.1364,-19.11752 2.59767,3.30671 2.59766,3.30672 27.14098,-27.1154 27.14098,-27.1154 29.71271,28.96369 29.71269,28.96369 -23.06694,23.59056 c -12.6868,12.97481 -24.31545,25.39218 -25.84142,27.59416 -2.55599,3.6883 -2.66512,4.20875 -1.38566,6.60844 1.43922,2.69933 61.72092,62.19621 64.71341,63.87089 1.40174,0.78445 7.98258,-5.34414 38.39232,-35.75387 l 36.70061,-36.7006 -20.78206,-21.01485 c -11.43012,-11.55816 -22.31548,-22.69417 -24.1897,-24.74668 l -3.40765,-3.73184 30.12079,-30.13293 30.12079,-30.13294 24.45894,24.44426 24.45894,24.44426 3.99678,-3.90275 3.99679,-3.90276 18.98329,18.98329 18.9833,18.9833 -3.39831,3.50617 -3.39832,3.50617 13.2076,13.23483 13.20758,13.23483 -4.65714,48.29602 c -2.56143,26.56281 -4.96047,50.67189 -5.3312,53.57575 l -0.67406,5.27973 -35.43954,-36.17879 c -20.88317,-21.31877 -36.17793,-36.17879 -37.23727,-36.17879 -2.99836,0 -9.93335,6.29583 -45.36141,41.18062 l -33.99278,33.47151 54.73548,54.38234 c 30.1045,29.91029 62.94938,62.74809 72.98862,72.97289 l 18.25314,18.59054 -19.21093,19.22991 c -10.56602,10.57644 -19.43807,19.2299 -19.71568,19.2299 -0.2776,0 -33.0677,-32.56296 -72.86687,-72.36214 z"
       id="path7106"
       sodipodi:insensitive="true" />
    <path
       style="display:inline;fill:#ff0000;stroke:#ffffff;stroke-width:5.106;stroke-dasharray:none;stroke-opacity:1"
       d="m 527.55497,902.65812 c -2.45308,-6.73784 -3.50693,-10.34346 -3.50693,-11.99853 0,-1.07304 -0.60427,-3.35307 -1.34282,-5.06672 -1.39469,-3.23611 -2.34785,-7.53321 -5.73392,-25.85006 -1.1051,-5.97798 -2.36783,-11.53981 -2.80606,-12.35962 -0.43824,-0.8198 -2.39149,-8.38722 -4.34058,-16.81648 -3.36879,-14.56916 -4.68762,-20.67645 -9.9429,-46.04373 -1.2468,-6.01831 -2.7126,-11.80262 -3.25733,-12.854 -0.54473,-1.05139 -1.30961,-3.67603 -1.69973,-5.83253 -0.99214,-5.48447 -3.09698,-9.16438 -5.71757,-9.99613 -1.22825,-0.38983 -6.23878,-2.67215 -11.13451,-5.07181 -4.89571,-2.39966 -11.43515,-5.20049 -14.53207,-6.22406 -3.09691,-1.02357 -6.65648,-2.51787 -7.91016,-3.32065 -1.25367,-0.80278 -6.50639,-3.32068 -11.67271,-5.59534 -15.95719,-7.0257 -23.11319,-10.2164 -40.04518,-17.85526 -8.13694,-3.67099 -9.3631,-3.32219 -25.45809,7.24191 -7.99512,5.24767 -17.10639,11.45468 -20.24726,13.79334 -6.37396,4.74599 -7.25025,5.3193 -12.8139,8.38343 -2.15086,1.18457 -5.71929,3.63178 -7.92983,5.43823 -2.21055,1.80646 -5.29426,4.04493 -6.85269,4.97438 -1.55843,0.92945 -7.33802,4.71149 -12.84353,8.40454 -5.50552,3.69306 -14.8494,9.92867 -20.76417,13.85694 -5.91478,3.92825 -14.27622,9.60132 -18.58096,12.60681 -4.30476,3.00549 -8.72452,5.46452 -9.82171,5.46452 -2.09843,0 -7.15208,-4.99182 -34.53511,-34.11256 -8.69333,-9.245 -19.67425,-20.6359 -24.40206,-25.31309 -9.51075,-9.40894 -20.80814,-22.20677 -20.80814,-23.57172 0,-0.81712 5.27388,-7.72921 29.09064,-38.12694 61.37378,-78.3324 61.87619,-78.98895 61.87619,-80.86108 0,-0.87147 -0.4038,-1.83406 -0.89732,-2.13907 -0.49353,-0.30502 -1.67369,-3.1122 -2.62258,-6.23817 -0.9489,-3.12598 -2.50151,-7.01843 -3.45026,-8.6499 -2.20597,-3.79344 -9.83893,-22.48709 -9.83893,-24.09625 0,-0.67099 -0.89083,-2.86545 -1.97963,-4.87657 -2.62683,-4.85204 -9.88561,-21.47023 -9.88561,-22.63204 0,-2.68305 -10.05007,-23.77374 -12.03878,-25.2641 -1.26411,-0.94735 -6.97032,-2.79814 -12.68047,-4.11286 -5.71014,-1.31472 -12.1685,-3.05983 -14.3519,-3.87803 -2.18341,-0.81819 -7.48391,-1.97637 -11.7789,-2.57376 -4.29498,-0.59737 -8.337,-1.52429 -8.98226,-2.0598 -0.64525,-0.53551 -3.35379,-1.41643 -6.01896,-1.95758 -2.66518,-0.54116 -7.9604,-1.91726 -11.76716,-3.058 -3.80677,-1.14074 -11.37086,-3.05131 -16.80909,-4.2457 -5.43824,-1.19439 -10.44509,-2.51619 -11.12634,-2.93732 -0.68125,-0.42112 -3.35093,-1.1523 -5.93262,-1.62482 -6.12048,-1.12022 -37.65911,-9.55285 -40.536889,-10.83853 l -2.224732,-0.99393 v -53.7881 c 0,-45.85822 0.212032,-53.96405 1.438205,-54.98168 2.082496,-1.72832 11.716236,-3.67969 29.402836,-5.95572 8.53331,-1.09812 16.5501,-2.39009 17.81509,-2.87103 1.26498,-0.48094 8.07652,-1.62701 15.13675,-2.54682 7.06023,-0.9198 15.95141,-2.51472 19.75817,-3.54424 3.80677,-1.02954 12.7057,-2.55186 19.7754,-3.38293 13.30998,-1.56465 29.70228,-4.59107 34.2668,-6.3265 1.44099,-0.54785 2.9906,-1.57973 3.44358,-2.29306 1.31947,-2.07782 5.59462,-12.26743 13.19702,-31.45443 2.13459,-5.38729 6.42772,-15.42741 10.0182,-23.42904 1.02371,-2.28141 1.86129,-4.62342 1.86129,-5.20445 0,-0.58104 0.39793,-1.82906 0.88429,-2.77338 1.18311,-2.29714 7.27496,-16.92049 10.47019,-25.13347 3.01339,-7.7456 2.76453,-8.79798 -4.87237,-20.60342 -2.47751,-3.82984 -4.52992,-7.28318 -4.56091,-7.67409 -0.031,-0.39091 -3.11257,-5.82763 -6.84796,-12.0816 -3.7354,-6.25397 -10.90413,-18.49 -15.93051,-27.19117 -5.02638,-8.70118 -10.39878,-17.57653 -11.93866,-19.723 -1.53989,-2.14647 -2.79979,-4.24834 -2.79979,-4.67082 0,-0.42248 -3.40675,-6.45284 -7.57056,-13.4008 -4.16381,-6.94795 -8.68448,-14.63491 -10.04593,-17.08211 -1.36145,-2.44721 -2.96034,-5.26334 -3.5531,-6.25806 -0.8912,-1.49557 -0.55099,-2.26567 1.96564,-4.44947 7.6718,-6.6572 39.00636,-32.795556 43.51898,-36.302259 2.76872,-2.151525 10.44844,-8.465191 17.06606,-14.03037 6.61762,-5.565178 13.16688,-10.403334 14.55391,-10.751456 4.43641,-1.113466 10.26317,0.328648 15.55109,3.848866 12.74656,8.485503 46.07952,29.38072 46.86941,29.38072 0.34397,0 1.33013,0.690137 2.19148,1.533637 1.3106,1.283423 16.63929,11.039758 40.15294,25.556352 2.73275,1.68712 6.24109,4.06862 7.79631,5.29222 4.69559,3.69438 7.8297,2.94097 26.28227,-6.31798 13.47218,-6.759953 17.20128,-8.257731 17.86914,-7.177099 1.71014,2.767059 2.07386,12.025599 1.7512,44.577549 l -0.33016,33.30719 -2.9663,3.13582 c -1.63148,1.72469 -8.25046,7.17701 -14.70886,12.11624 -19.75648,15.10931 -44.88154,40.64855 -59.14264,60.1176 -3.33052,4.54677 -6.65293,8.8643 -7.38314,9.5945 -0.73021,0.73021 -1.32765,1.74585 -1.32765,2.25698 0,0.51113 -1.71562,3.48274 -3.8125,6.60357 -8.60924,12.81334 -19.02736,35.6581 -26.26091,57.58466 -6.54907,19.85177 -9.21549,33.02521 -11.60786,57.34866 -1.41476,14.38407 -0.52418,55.41769 1.45929,67.23635 0.86703,5.16632 2.25447,13.6203 3.0832,18.78663 1.83967,11.46861 12.41181,43.96862 19.49851,59.94073 16.37261,36.90083 45.55801,74.99571 76.47208,99.81683 9.50583,7.63231 13.57313,10.57698 23.23609,16.82268 2.44721,1.58176 4.67194,3.13316 4.94385,3.44756 1.68568,1.94908 28.72602,14.86355 35.86621,17.12972 3.93053,1.24748 8.50794,2.97221 10.17202,3.83275 4.97851,2.57448 20.01421,6.51521 31.08582,8.14733 5.71015,0.84176 12.60682,1.93537 15.32593,2.43026 6.45864,1.17547 56.88991,1.16652 63.28128,-0.0113 2.71911,-0.50106 9.83826,-1.59336 15.82032,-2.42734 14.73714,-2.05456 17.23516,-2.5547 17.86713,-3.57723 0.298,-0.48218 1.56605,-0.87669 2.8179,-0.87669 2.31925,0 12.53762,-3.13303 22.31249,-6.8412 2.98336,-1.13174 6.07593,-2.05773 6.87238,-2.05773 2.5221,0 42.47527,-18.26434 48.5127,-22.17728 1.90338,-1.23361 8.3551,-5.07375 14.33716,-8.53364 19.44762,-11.24808 39.9318,-26.0435 62.78689,-45.35005 7.88544,-6.66113 15.51015,-12.7252 16.94381,-13.47572 2.5072,-1.31254 2.88436,-1.12676 9.8877,4.87037 4.00457,3.42922 24.87853,22.88087 46.38655,43.2259 21.50803,20.34503 50.09723,47.37525 63.53154,60.06717 14.39207,13.59673 24.67358,24.06249 25.02865,25.47718 0.98464,3.92316 -2.80201,9.65441 -38.97533,58.99066 -8.86559,12.09164 -17.00761,22.74116 -18.09338,23.66558 -2.37641,2.02331 -4.04122,1.52617 -9.46406,-2.8261 -2.26923,-1.82124 -4.94175,-3.64344 -5.93892,-4.04933 -2.61974,-1.06632 -26.50767,-16.37739 -49.10777,-31.47581 -6.44139,-4.3033 -14.18201,-9.28028 -17.20137,-11.05997 -3.01934,-1.77969 -7.53793,-4.7272 -10.0413,-6.55004 -2.50337,-1.82283 -6.36112,-4.22749 -8.5728,-5.34367 -2.21167,-1.1162 -4.5854,-2.70922 -5.27494,-3.54008 -0.68955,-0.83085 -4.88678,-3.60834 -9.32718,-6.17221 -4.4404,-2.56388 -8.84003,-5.31174 -9.77695,-6.10637 -1.1271,-0.95591 -2.74853,-1.23579 -4.79189,-0.82712 -4.53292,0.90659 -26.60247,9.17681 -39.97679,14.98067 -1.63147,0.70799 -5.85846,2.39517 -9.39331,3.7493 -8.05057,3.08401 -16.40575,6.44724 -20.26978,8.15923 -1.63147,0.72284 -5.18014,2.03546 -7.88592,2.91694 -2.70579,0.88147 -5.44577,2.03935 -6.08884,2.57306 -0.64309,0.53371 -4.21357,1.53013 -7.93441,2.21427 l -6.76516,1.24388 -0.26207,4.89035 c -0.28966,5.40509 -4.46402,28.00132 -9.67123,52.35131 -1.86073,8.70118 -4.96447,24.71925 -6.89719,35.59572 -1.93271,10.87647 -4.35463,23.33497 -5.38202,27.68556 -1.02739,4.35058 -2.84674,12.68564 -4.04299,18.52234 -1.19626,5.8367 -2.74861,11.08823 -3.44967,11.67006 -0.8507,0.70601 -19.21595,1.25769 -55.21608,1.65864 -45.91153,0.51134 -54.01699,0.39321 -54.44907,-0.79358 z"
       id="path7108"
       sodipodi:insensitive="true" />
  </g>
</svg>
